<svg id="visual" viewBox="0 0 960 540" width="960" height="540" xmlns="http://www.w3.org/2000/svg" xmlns:xlink="http://www.w3.org/1999/xlink" version="1.1"><path d="M0 402L20 393.8C40 385.7 80 369.3 120 364.3C160 359.3 200 365.7 240 367.2C280 368.7 320 365.3 360 366C400 366.7 440 371.3 480 375.7C520 380 560 384 600 381.5C640 379 680 370 720 364.5C760 359 800 357 840 365C880 373 920 391 940 400L960 409L960 541L940 541C920 541 880 541 840 541C800 541 760 541 720 541C680 541 640 541 600 541C560 541 520 541 480 541C440 541 400 541 360 541C320 541 280 541 240 541C200 541 160 541 120 541C80 541 40 541 20 541L0 541Z" fill="#4169e1"></path><path d="M0 433L20 429.2C40 425.3 80 417.7 120 417.5C160 417.3 200 424.7 240 425.2C280 425.7 320 419.3 360 419C400 418.7 440 424.3 480 427.7C520 431 560 432 600 426.7C640 421.3 680 409.7 720 404.7C760 399.7 800 401.3 840 405C880 408.7 920 414.3 940 417.2L960 420L960 541L940 541C920 541 880 541 840 541C800 541 760 541 720 541C680 541 640 541 600 541C560 541 520 541 480 541C440 541 400 541 360 541C320 541 280 541 240 541C200 541 160 541 120 541C80 541 40 541 20 541L0 541Z" fill="#7986e3"></path><path d="M0 460L20 454.3C40 448.7 80 437.3 120 437.7C160 438 200 450 240 452C280 454 320 446 360 446.3C400 446.7 440 455.3 480 457.2C520 459 560 454 600 452.3C640 450.7 680 452.3 720 450.5C760 448.7 800 443.3 840 445C880 446.7 920 455.3 940 459.7L960 464L960 541L940 541C920 541 880 541 840 541C800 541 760 541 720 541C680 541 640 541 600 541C560 541 520 541 480 541C440 541 400 541 360 541C320 541 280 541 240 541C200 541 160 541 120 541C80 541 40 541 20 541L0 541Z" fill="#a2a5e5"></path><path d="M0 484L20 483.8C40 483.7 80 483.3 120 478C160 472.7 200 462.3 240 459.2C280 456 320 460 360 466.3C400 472.7 440 481.3 480 481.8C520 482.3 560 474.7 600 468.5C640 462.3 680 457.7 720 461.5C760 465.3 800 477.7 840 480.8C880 484 920 478 940 475L960 472L960 541L940 541C920 541 880 541 840 541C800 541 760 541 720 541C680 541 640 541 600 541C560 541 520 541 480 541C440 541 400 541 360 541C320 541 280 541 240 541C200 541 160 541 120 541C80 541 40 541 20 541L0 541Z" fill="#c6c5e6"></path><path d="M0 505L20 507C40 509 80 513 120 513.8C160 514.7 200 512.3 240 509.3C280 506.3 320 502.7 360 502.3C400 502 440 505 480 505.8C520 506.7 560 505.3 600 504.3C640 503.3 680 502.7 720 501.5C760 500.3 800 498.7 840 498.7C880 498.7 920 500.3 940 501.2L960 502L960 541L940 541C920 541 880 541 840 541C800 541 760 541 720 541C680 541 640 541 600 541C560 541 520 541 480 541C440 541 400 541 360 541C320 541 280 541 240 541C200 541 160 541 120 541C80 541 40 541 20 541L0 541Z" fill="#e7e7e7"></path></svg>