<svg id="visual" viewBox="0 0 960 540" width="960" height="540" xmlns="http://www.w3.org/2000/svg" xmlns:xlink="http://www.w3.org/1999/xlink" version="1.1"><rect x="0" y="0" width="960" height="540" fill="#F8F8F8"></rect><path d="M0 416L22.8 409.5C45.7 403 91.3 390 137 385.3C182.7 380.7 228.3 384.3 274 397.8C319.7 411.3 365.3 434.7 411.2 440.5C457 446.3 503 434.7 548.8 418C594.7 401.3 640.3 379.7 686 378C731.7 376.3 777.3 394.7 823 402.2C868.7 409.7 914.3 406.3 937.2 404.7L960 403L960 541L937.2 541C914.3 541 868.7 541 823 541C777.3 541 731.7 541 686 541C640.3 541 594.7 541 548.8 541C503 541 457 541 411.2 541C365.3 541 319.7 541 274 541C228.3 541 182.7 541 137 541C91.3 541 45.7 541 22.8 541L0 541Z" fill="#1898E0" stroke-linecap="round" stroke-linejoin="miter"></path></svg>