<?xml version="1.0" standalone="no"?>
<!DOCTYPE svg PUBLIC "-//W3C//DTD SVG 20010904//EN"
 "http://www.w3.org/TR/2001/REC-SVG-20010904/DTD/svg10.dtd">
<svg version="1.0" xmlns="http://www.w3.org/2000/svg"
 width="1280.000000pt" height="1107.000000pt" viewBox="0 0 1280.000000 1107.000000"
 preserveAspectRatio="xMidYMid meet">
<metadata>
Created by potrace 1.15, written by Peter Selinger 2001-2017
</metadata>
<g transform="translate(0.000000,1107.000000) scale(0.100000,-0.100000)"
fill="#F6F2FF" stroke="none">
<path d="M6950 11060 c-220 -27 -533 -134 -744 -255 -169 -96 -337 -239 -460
-392 l-49 -60 -113 -7 c-98 -6 -124 -5 -199 15 -98 25 -149 22 -237 -11 -71
-26 -133 -85 -150 -142 -10 -34 -40 -70 -154 -183 -155 -155 -177 -189 -176
-274 2 -90 170 -656 214 -720 13 -19 43 -48 67 -65 l43 -31 124 3 124 2 0 -32
c0 -18 5 -107 10 -198 20 -307 52 -469 151 -752 41 -118 55 -170 46 -173 -6
-2 -75 -6 -152 -8 -152 -6 -207 -20 -271 -70 -56 -45 -64 -91 -76 -429 l-10
-297 61 -89 c34 -49 61 -92 61 -96 0 -5 -41 -51 -91 -104 -84 -88 -97 -109
-159 -237 -40 -82 -111 -205 -173 -297 -124 -184 -123 -181 -237 -635 -45
-175 -90 -334 -105 -362 -35 -70 -93 -111 -156 -111 -115 0 -231 -45 -406
-158 -149 -95 -169 -107 -240 -132 l-61 -22 -68 22 c-90 30 -147 24 -359 -40
-370 -112 -542 -186 -745 -320 -143 -94 -239 -141 -422 -211 -211 -80 -253
-106 -377 -234 -100 -105 -143 -160 -213 -278 -21 -36 -39 -51 -90 -75 -77
-37 -104 -64 -143 -145 -38 -79 -78 -106 -256 -176 -161 -63 -229 -107 -285
-184 -51 -69 -78 -137 -93 -236 -6 -41 -14 -77 -16 -82 -3 -4 -25 -17 -49 -29
-53 -25 -191 -167 -246 -252 -44 -68 -70 -141 -70 -199 0 -47 51 -248 84 -327
28 -69 106 -196 155 -254 51 -59 106 -87 194 -98 42 -5 102 -18 134 -29 85
-28 245 -53 348 -55 124 -1 172 22 235 118 28 42 57 73 75 80 37 16 102 87
121 132 21 49 17 82 -16 152 -17 35 -30 65 -30 67 0 2 52 51 116 109 115 105
116 105 144 91 55 -29 119 -37 198 -25 95 15 143 32 215 76 64 40 52 39 258
14 135 -17 255 -4 427 44 67 19 159 40 205 46 117 17 220 38 312 65 44 13 188
51 320 84 293 74 351 100 468 210 l82 79 160 4 c190 5 197 7 337 129 114 98
175 140 276 186 96 44 220 86 232 78 23 -14 60 -267 81 -555 17 -246 16 -456
-6 -610 -20 -148 -26 -446 -11 -562 9 -67 8 -69 -33 -150 -23 -46 -46 -110
-52 -143 -16 -85 -5 -273 30 -514 l30 -204 -54 -201 c-30 -111 -61 -222 -68
-248 l-14 -46 41 -5 c93 -13 2042 -27 3826 -30 1864 -2 2210 2 2500 31 l65 7
3 65 c5 94 -16 312 -39 409 -25 109 -73 197 -159 296 -38 44 -81 102 -96 129
-27 49 -27 51 -21 189 3 77 7 141 9 142 2 1 217 8 478 15 261 6 533 15 604 19
l130 7 73 80 c41 43 102 117 137 162 l64 84 7 217 c8 252 0 471 -41 1031 -16
225 -21 294 -94 1225 l-51 639 49 111 c75 166 111 330 138 625 9 104 15 115
66 128 54 14 102 44 123 76 38 58 46 709 11 851 -12 47 -15 123 -15 345 0 157
-4 319 -10 360 -6 41 -16 224 -21 405 -15 489 -29 579 -108 701 -46 70 -242
262 -274 268 -95 18 -103 21 -106 45 -2 13 8 61 22 107 33 105 45 230 46 465
0 186 0 187 -30 250 -36 79 -64 217 -85 419 -20 200 -31 256 -63 315 -30 54
-74 89 -136 107 -48 14 -182 16 -246 5 l-45 -8 -39 68 c-50 87 -145 182 -218
217 -44 22 -77 29 -143 34 l-85 5 -38 56 c-69 100 -219 181 -314 168 -22 -3
-57 -17 -79 -31 -46 -31 -59 -32 -127 -6 -100 38 -223 20 -279 -41 -30 -33
-60 -104 -68 -161 -8 -53 -19 -62 -29 -22 -17 66 -171 180 -341 251 -183 78
-325 97 -494 68 -85 -15 -112 -16 -164 -7 -34 6 -138 17 -230 23 -261 19 -346
-1 -471 -111 -32 -28 -64 -49 -70 -47 -6 3 -78 32 -160 66 -383 157 -599 199
-1071 206 -143 2 -294 0 -335 -5z m937 -196 c37 -8 71 -19 75 -23 4 -3 -31
-26 -78 -49 -82 -41 -85 -42 -65 -16 26 33 27 58 1 84 -24 24 -20 24 67 4z
m968 -54 c-3 -5 -14 -10 -23 -10 -15 0 -15 2 -2 10 20 13 33 13 25 0z m315
-15 c-10 -12 -16 -13 -26 -4 -20 16 -18 19 12 19 22 0 25 -2 14 -15z m-120 -2
c-8 -3 -30 -12 -47 -19 -18 -7 -33 -11 -33 -8 0 7 63 33 80 33 13 -1 13 -1 0
-6z m670 -3 c14 -5 -18 -6 -75 -3 -55 3 -102 7 -104 9 -9 8 155 2 179 -6z
m-1530 -27 c5 -4 -22 -9 -60 -10 -207 -7 -400 -113 -400 -220 l0 -34 -30 18
c-16 9 -30 22 -30 28 0 26 108 109 210 160 105 54 180 75 244 71 32 -2 62 -8
66 -13z m1176 -28 c0 -14 -2 -25 -2 -25 -1 0 -16 6 -34 14 l-33 13 29 11 c41
15 42 15 40 -13z m-2646 -7 c-127 -15 -252 -38 -310 -58 -30 -10 -56 -17 -58
-16 -1 2 23 15 54 30 81 39 163 54 284 54 l105 -1 -75 -9z m1955 -25 c-14 -21
-25 -50 -25 -66 0 -16 -4 -26 -10 -22 -20 12 -10 55 21 90 40 45 46 45 14 -2z
m175 -28 c-45 -46 -50 -50 -50 -38 0 7 81 83 89 83 3 0 -15 -20 -39 -45z
m2126 29 c52 -25 48 -31 -15 -26 -64 5 -106 -11 -147 -55 -24 -25 -24 -25 -24
-4 0 77 103 124 186 85z m-335 -20 c11 -10 25 -27 30 -36 7 -14 1 -12 -27 7
-49 34 -113 38 -145 9 -8 -8 -19 -14 -23 -14 -9 0 13 42 28 53 20 14 114 2
137 -19z m-1140 -4 c20 -6 59 -25 85 -43 48 -32 134 -128 134 -149 0 -6 -9 1
-20 15 -30 38 -113 96 -215 150 -90 48 -87 54 16 27z m-244 -11 l28 -12 -30
-7 c-16 -4 -37 -9 -45 -11 -9 -3 -16 5 -18 19 -4 25 19 29 65 11z m-1617 -46
c-24 -27 -44 -49 -45 -50 -1 -2 -35 7 -75 19 -62 19 -70 23 -50 29 14 4 41 8
60 8 19 1 58 10 85 20 72 26 72 26 25 -26z m-964 16 c-72 -8 -166 -24 -206
-36 -12 -3 -11 -2 1 6 24 16 165 39 229 39 49 -1 46 -2 -24 -9z m2464 -94 c7
-8 8 -15 2 -15 -5 0 -15 7 -22 15 -7 8 -8 15 -2 15 5 0 15 -7 22 -15z m-70 -5
c0 -5 -2 -10 -4 -10 -3 0 -8 5 -11 10 -3 6 -1 10 4 10 6 0 11 -4 11 -10z
m-2990 -19 c0 -5 -7 -11 -15 -15 -15 -5 -20 5 -8 17 9 10 23 9 23 -2z m3080
-26 c0 -9 -6 -12 -15 -9 -8 4 -12 10 -9 15 8 14 24 10 24 -6z m-497 -2 c-7 -2
-19 -2 -25 0 -7 3 -2 5 12 5 14 0 19 -2 13 -5z m131 -3 l26 -9 -18 -37 -17
-37 -5 34 c-3 23 -13 37 -30 46 -24 12 -24 13 -3 13 12 0 33 -4 47 -10z m831
-10 c10 -11 16 -20 13 -20 -3 0 -13 9 -23 20 -10 11 -16 20 -13 20 3 0 13 -9
23 -20z m-2242 -19 c75 -26 132 -50 117 -51 -3 0 -54 18 -115 40 -128 45 -130
54 -2 11z m4040 -4 c59 -35 56 -44 -5 -17 -64 28 -144 35 -196 17 -29 -10 -42
-11 -39 -4 8 25 53 38 122 35 55 -3 80 -9 118 -31z m-2428 -6 c16 -7 15 -9
-12 -14 -40 -8 -87 -49 -119 -104 -36 -61 -42 -46 -8 18 52 95 87 120 139 100z
m-522 -42 c-11 -12 -27 -19 -34 -17 -9 3 -3 11 16 21 40 22 43 21 18 -4z m669
-10 c40 -21 43 -27 53 -114 l7 -60 -32 63 c-18 35 -49 81 -70 103 -40 43 -31
45 42 8z m898 -15 c-58 -13 -112 -26 -120 -29 -12 -5 -12 -3 1 10 26 27 90 44
159 44 l65 0 -105 -25z m-332 -57 c11 -34 22 -80 25 -102 l6 -40 -11 35 c-45
144 -55 179 -47 174 5 -2 17 -33 27 -67z m1175 -17 c-6 -6 -63 57 -63 70 0 5
15 -7 34 -28 19 -20 32 -39 29 -42z m-2883 -57 c32 -29 49 -53 52 -73 3 -17 2
-33 -2 -35 -3 -2 -26 6 -50 18 l-45 21 38 4 c20 2 37 7 37 11 0 9 -66 71 -115
109 l-30 23 34 -18 c18 -10 55 -37 81 -60z m2123 -15 c8 -43 13 -78 12 -78 -2
0 -15 20 -29 44 -14 24 -40 58 -56 75 l-31 30 28 7 c15 3 33 7 38 9 18 5 23
-8 38 -87z m824 66 c-3 -3 -12 -4 -19 -1 -8 3 -5 6 6 6 11 1 17 -2 13 -5z
m-1003 -21 c-4 -10 -13 -47 -20 -83 -11 -57 -12 -60 -13 -25 -1 22 -4 50 -7
62 -4 14 1 28 15 42 26 26 36 27 25 4z m-661 -93 c4 -36 3 -46 -3 -28 -4 15
-11 51 -14 80 -3 34 -3 44 3 28 4 -14 11 -50 14 -80z m2262 63 c-18 -41 -43
-73 -58 -73 -6 0 1 12 15 28 15 15 31 39 37 55 6 15 13 27 16 27 3 0 -2 -17
-10 -37z m-1001 -18 c-4 -8 -7 -15 -9 -15 -2 0 -5 7 -9 15 -3 9 0 15 9 15 9 0
12 -6 9 -15z m188 -24 c13 -47 5 -48 -26 0 -27 40 -27 41 -5 37 16 -2 25 -13
31 -37z m133 -10 c-14 -9 -25 -19 -25 -23 0 -22 -18 -4 -24 23 -8 44 0 51 40
32 l35 -17 -26 -15z m-2318 -46 c24 -85 29 -127 11 -85 -50 111 -61 131 -73
126 -7 -2 -21 4 -30 14 -19 21 -7 30 40 27 28 -2 31 -6 52 -82z m-3227 65 c0
-5 -4 -10 -10 -10 -5 0 -10 5 -10 10 0 6 5 10 10 10 6 0 10 -4 10 -10z m-101
-3 c-31 -22 -59 -35 -59 -27 0 6 10 15 23 20 21 8 45 13 36 7z m3030 -12 c-27
-14 -59 -69 -59 -100 0 -33 -18 -4 -24 40 -10 62 -11 59 31 66 70 11 81 10 52
-6z m-2632 -25 c13 -34 13 -34 -22 -18 -28 13 -30 19 -13 36 18 18 22 15 35
-18z m5530 -20 l14 -35 -20 24 c-10 14 -27 31 -37 39 -18 13 -18 13 5 10 17
-2 29 -13 38 -38z m627 -12 c-23 -24 -50 -56 -62 -72 -27 -36 -28 -18 -2 33
21 43 64 81 88 81 11 0 3 -14 -24 -42z m221 31 c11 -17 2 -18 -19 -3 -17 12
-17 14 -4 14 9 0 20 -5 23 -11z m-6572 -21 c-13 -12 -26 -19 -29 -15 -4 4 1
14 12 22 29 22 41 18 17 -7z m2945 -25 c-14 -16 -30 -37 -37 -48 -10 -17 -10
-16 -5 10 11 47 23 65 46 65 21 0 21 -1 -4 -27z m1500 -168 c0 -16 -6 4 -14
45 -7 41 -12 91 -12 110 0 19 6 -1 13 -45 8 -44 13 -93 13 -110z m882 160 c0
-17 -23 -25 -76 -25 -44 0 -64 20 -21 20 12 1 36 7 52 14 33 14 45 12 45 -9z
m-5610 -56 c-14 -11 -36 -30 -48 -40 -13 -11 -26 -19 -28 -17 -9 9 31 51 60
64 42 18 45 17 16 -7z m3113 -43 c3 -30 1 -43 -4 -35 -5 8 -8 34 -8 59 1 53 6
44 12 -24z m3342 24 c28 -45 30 -50 14 -50 -14 0 -79 67 -79 81 0 5 9 9 20 9
12 0 29 -15 45 -40z m-3135 -47 c-7 -23 -8 -18 -8 27 0 45 1 50 8 28 5 -16 5
-40 0 -55z m2848 66 c-10 -5 -18 -18 -18 -28 0 -22 52 -72 110 -106 l45 -27
-44 5 c-50 6 -90 39 -116 97 -21 46 -15 70 17 70 20 -1 21 -2 6 -11z m-5916
-81 c-5 -70 -8 -75 -20 -34 -10 34 -9 43 5 58 9 10 17 18 17 18 1 0 0 -19 -2
-42z m5038 10 c0 -21 -11 -23 -28 -6 -17 17 -15 24 8 24 13 0 20 -7 20 -18z
m183 -32 c3 -29 15 -73 27 -97 l21 -44 -26 30 c-14 17 -32 44 -40 62 -19 40
-20 103 -1 103 9 0 15 -18 19 -54z m151 38 c11 -4 16 -19 16 -51 l0 -45 -35
46 c-19 26 -35 48 -35 51 0 7 35 6 54 -1z m-2357 -34 c13 0 23 -4 23 -10 0
-16 -52 -11 -72 7 -25 23 -23 37 4 19 12 -9 33 -16 45 -16z m416 -60 c-7 -8
-63 59 -63 76 0 9 15 -4 34 -28 18 -24 31 -45 29 -48z m-3113 -1 c0 -11 -12
-19 -36 -24 -20 -3 -38 -4 -40 -2 -3 3 8 25 23 50 l28 46 12 -27 c7 -15 12
-34 13 -43z m5174 40 c-8 -14 -24 -10 -24 6 0 9 6 12 15 9 8 -4 12 -10 9 -15z
m-5563 -84 c23 -74 19 -95 -5 -32 -32 86 -37 48 -10 -80 3 -18 4 -33 1 -33 -3
0 -15 41 -27 91 -16 71 -18 94 -9 105 19 23 30 12 50 -51z m4556 43 c-3 -8 -6
-5 -6 6 -1 11 2 17 5 13 3 -3 4 -12 1 -19z m1345 -4 c-5 -27 -8 -28 -31 -7
-20 16 -20 18 -4 25 26 10 38 3 35 -18z m828 -14 c0 -18 -6 -20 -57 -19 -47 1
-52 2 -28 8 17 4 40 13 50 19 28 16 35 15 35 -8z m-1874 -49 c-3 -5 -15 -11
-26 -14 -19 -5 -20 -4 -3 24 14 23 19 26 26 14 4 -8 6 -19 3 -24z m614 -6 c0
-22 -4 -25 -37 -25 l-38 1 28 15 c15 8 27 19 27 24 0 6 5 10 10 10 6 0 10 -11
10 -25z m-5611 -34 c11 -19 41 -121 37 -121 -2 0 -20 27 -41 61 -25 41 -42 59
-52 55 -8 -3 -24 -1 -36 6 -21 11 -20 12 18 24 42 12 58 7 74 -25z m5269 -1
c47 -33 67 -68 77 -125 6 -38 4 -36 -32 29 -46 84 -84 117 -113 98 -16 -10
-20 -10 -20 1 0 37 35 35 88 -3z m897 24 c14 -6 13 -9 -6 -30 -25 -27 -39 -23
-39 12 0 24 13 30 45 18z m-6391 -49 c-20 -30 -30 -32 -37 -6 -6 25 0 31 30
31 23 0 23 -1 7 -25z m677 -26 l-21 -34 0 27 c0 15 8 31 17 37 26 14 27 7 4
-30z m73 26 c-4 -8 -8 -15 -10 -15 -2 0 -4 7 -4 15 0 8 4 15 10 15 5 0 7 -7 4
-15z m-842 -60 c-17 -68 -26 -69 -37 -2 -7 41 6 67 35 67 16 0 16 -4 2 -65z
m4512 10 l28 -50 -25 25 c-14 14 -29 39 -33 55 -8 37 -5 33 30 -30z m886 14
c0 -48 -12 -74 -43 -90 l-22 -12 23 25 c27 30 28 64 2 80 -25 16 -25 25 -2 31
38 10 42 7 42 -34z m1810 15 c24 -62 -33 -87 -190 -82 l-105 3 139 23 c77 12
142 25 145 28 10 10 -23 23 -83 31 l-61 8 55 6 c30 3 63 6 73 7 10 1 21 -8 27
-24z m-3173 -7 c-6 -20 -27 -19 -27 2 0 14 5 19 15 14 9 -3 14 -10 12 -16z
m-438 -14 c-13 -16 -27 -32 -31 -37 -5 -6 -8 -5 -8 2 0 14 44 62 56 62 4 0 -3
-12 -17 -27z m2529 10 c-10 -2 -26 -2 -35 0 -10 3 -2 5 17 5 19 0 27 -2 18 -5z
m-5972 -25 c-9 -12 -16 -40 -16 -61 0 -23 -4 -36 -10 -32 -26 16 1 115 31 115
6 0 3 -10 -5 -22z m3330 -25 c-7 -29 -12 -40 -14 -27 -3 19 13 74 21 74 2 0
-1 -21 -7 -47z m934 -3 c8 -4 17 -15 18 -24 3 -14 -10 -10 -67 19 -39 19 -71
37 -71 39 0 5 98 -23 120 -34z m1385 -5 c-19 -20 -35 -41 -35 -47 0 -6 -3 -9
-6 -6 -3 3 0 24 6 47 10 36 14 41 41 41 l30 0 -36 -35z m-2009 -36 l3 -44 -9
43 c-5 23 -12 48 -16 55 -5 9 -4 9 5 1 7 -6 14 -31 17 -55z m-3001 21 c-14
-27 -35 -41 -35 -23 0 7 41 53 47 53 2 0 -3 -13 -12 -30z m4160 -89 c-16 -15
-17 -14 -11 9 3 14 6 45 7 70 l1 45 10 -54 c9 -46 7 -56 -7 -70z m-4706 69 c0
-10 -3 -8 -9 5 -12 27 -12 43 0 25 5 -8 9 -22 9 -30z m6297 -28 c-22 -5 -64
16 -76 38 -10 19 -7 18 39 -7 28 -16 44 -29 37 -31z m-2825 -37 c-8 -25 -9
-21 -9 30 0 50 1 55 9 30 5 -17 5 -42 0 -60z m1391 4 c32 -13 32 -13 8 -20
-14 -4 -42 -7 -64 -8 -31 -1 -37 2 -32 15 3 9 6 32 6 52 l0 37 25 -31 c13 -17
39 -37 57 -45z m1193 51 c67 -10 96 -23 82 -36 -3 -3 -52 5 -109 19 -107 27
-94 34 27 17z m-1956 -50 c-7 -5 -14 -8 -14 -7 0 1 -9 13 -20 26 l-20 24 34
-18 c25 -13 30 -19 20 -25z m-4121 -6 c-9 -9 -24 -14 -34 -12 -16 3 -14 7 11
20 35 19 46 15 23 -8z m3720 -6 c-16 -50 -28 -56 -28 -16 0 32 8 45 32 47 4 1
2 -14 -4 -31z m3282 -21 c0 -62 -16 -82 -68 -89 l-32 -5 35 29 c46 38 59 63
46 87 -6 10 -7 21 -4 25 16 16 23 2 23 -47z m-7211 -27 c0 -9 -4 -8 -9 5 -5
11 -9 27 -9 35 0 9 4 8 9 -5 5 -11 9 -27 9 -35z m711 -3 c0 -24 -3 -28 -10
-17 -13 20 -13 63 0 55 6 -3 10 -21 10 -38z m2970 11 c0 -9 -35 -28 -52 -28
-7 0 -23 8 -35 18 -23 17 -22 17 32 17 30 0 55 -3 55 -7z m-157 -105 l31 -33
-32 0 c-28 0 -32 4 -42 41 -6 22 -14 48 -17 57 -3 9 3 6 12 -8 10 -14 32 -40
48 -57z m286 -7 c-9 -8 -10 -5 -5 14 3 14 6 32 7 40 1 8 4 2 6 -14 3 -16 -1
-34 -8 -40z m540 20 c16 -66 14 -70 -20 -32 -16 19 -40 38 -52 42 -21 7 -21 8
8 20 46 20 52 17 64 -30z m-4089 24 c12 -8 9 -10 -12 -10 -16 0 -42 -13 -62
-31 l-35 -30 9 30 c5 17 11 35 15 41 8 13 65 13 85 0z m4802 -2 c-9 -9 -15 -9
-24 0 -9 9 -7 12 12 12 19 0 21 -3 12 -12z m-202 -23 c0 -6 -52 -57 -55 -53
-6 7 -25 47 -25 52 0 3 18 6 40 6 22 0 40 -2 40 -5z m-4190 -43 c0 -15 -2 -15
-10 -2 -13 20 -13 33 0 25 6 -3 10 -14 10 -23z m4695 8 l20 -9 -20 0 c-11 0
-29 4 -40 9 l-20 9 20 0 c11 0 29 -4 40 -9z m315 -14 c0 -7 -8 -20 -17 -27
-15 -12 -16 -12 -10 4 4 10 7 23 7 28 0 5 5 9 10 9 6 0 10 -6 10 -14z m1608
-20 c3 -24 1 -28 -10 -19 -7 6 -33 14 -58 18 l-45 8 35 13 c53 20 74 14 78
-20z m-7018 14 c0 -5 -4 -10 -10 -10 -13 0 -30 -34 -40 -83 l-8 -42 -1 53 c-1
40 4 57 19 72 22 22 40 26 40 10z m4750 -19 c0 -5 -15 -12 -34 -15 -18 -4 -52
-20 -75 -36 -36 -26 -41 -28 -41 -12 0 22 25 47 60 61 32 12 90 14 90 2z m170
-54 c-1 -7 -7 -23 -16 -37 -12 -21 -14 -22 -9 -4 3 12 1 33 -5 48 -9 25 -8 26
10 16 11 -6 20 -16 20 -23z m-4860 -26 c0 -32 -6 -24 -14 19 -4 25 -3 31 4 20
5 -8 10 -26 10 -39z m5045 10 l40 -18 -54 -12 c-30 -6 -61 -16 -68 -23 -10 -8
-13 -6 -13 11 0 32 18 61 38 61 9 0 35 -9 57 -19z m348 -38 c-15 -27 -36 -61
-46 -78 l-19 -30 5 45 c5 35 14 52 41 77 20 18 38 33 41 33 3 0 -7 -21 -22
-47z m-5303 -17 c0 -14 -11 -38 -25 -53 l-25 -28 22 53 c12 28 23 52 25 52 2
0 3 -11 3 -24z m3968 -68 c-7 -4 -20 -8 -29 -8 -14 0 -13 6 5 45 l21 45 8 -37
c5 -26 4 -39 -5 -45z m-4080 46 c-11 -11 -23 -14 -39 -9 -22 7 -21 8 11 19 41
14 50 11 28 -10z m314 -16 c-11 -11 -32 -3 -32 12 0 4 9 6 21 3 13 -4 17 -9
11 -15z m-118 -89 c-3 -5 -19 -9 -36 -9 -29 0 -30 1 -15 18 8 9 19 30 23 47
l7 29 13 -38 c8 -21 11 -42 8 -47z m5053 -1 c-2 -13 -4 -3 -4 22 0 25 2 35 4
23 2 -13 2 -33 0 -45z m-5387 -46 c0 -5 -23 9 -42 26 -10 8 -18 19 -18 24 0 6
14 -3 30 -19 17 -15 30 -29 30 -31z m5056 -24 l17 -33 -22 19 c-11 11 -21 25
-21 33 0 21 8 15 26 -19z m-996 1 c-11 -19 -13 -19 -29 -5 -40 36 -98 2 -122
-71 -14 -44 -21 -38 -9 9 6 19 21 47 35 62 20 22 32 26 80 26 53 0 55 -1 45
-21z m191 0 c19 -16 20 -19 6 -15 -10 3 -35 6 -55 6 -35 1 -36 2 -18 15 26 20
39 19 67 -6z m-3841 -50 c-12 -23 -30 -73 -40 -112 l-19 -72 0 96 c-1 109 4
118 72 128 4 0 -2 -17 -13 -40z m4048 -26 c2 -1 -6 -7 -18 -13 -27 -14 -36 -6
-45 40 l-7 35 33 -30 c19 -16 35 -31 37 -32z m-303 31 c13 -5 14 -8 3 -15 -21
-14 -38 -10 -32 6 7 17 7 17 29 9z m2881 -50 c-6 -31 -10 -34 -42 -34 l-35 0
35 34 c20 18 36 40 37 47 0 11 2 11 6 1 3 -7 2 -29 -1 -48z m-2736 36 c0 -5
-7 -7 -15 -4 -8 4 -15 8 -15 10 0 2 7 4 15 4 8 0 15 -4 15 -10z m-3857 -180
c3 -107 2 -148 -3 -105 -8 73 -13 291 -6 284 2 -2 6 -83 9 -179z m5932 141
c50 -10 79 -19 65 -20 -35 -1 -292 37 -299 45 -10 11 135 -5 234 -25z m-2635
-6 c0 -12 -3 -13 -19 -3 -28 17 -64 -10 -95 -74 -27 -56 -32 -50 -16 17 5 22
19 48 31 58 27 22 99 24 99 2z m1080 -5 c9 -17 8 -20 -9 -20 -11 0 -32 5 -48
11 l-28 12 25 7 c40 13 49 11 60 -10z m-561 -39 c9 -6 0 -11 -30 -16 -100 -16
-189 -77 -173 -119 5 -13 2 -15 -17 -8 -36 14 -33 26 15 66 92 75 165 102 205
77z m2176 -51 c66 -5 143 -12 170 -14 28 -2 -15 -2 -95 0 -80 2 -174 10 -210
19 -37 8 -48 12 -25 10 22 -2 94 -9 160 -15z m-1250 -51 c58 -59 59 -60 16
-30 -24 17 -47 29 -50 26 -2 -3 24 -35 59 -70 74 -75 73 -88 -1 -18 -42 39
-99 125 -99 148 0 15 21 -1 75 -56z m-512 34 c3 -5 8 -24 12 -43 l7 -35 -23
30 c-13 17 -30 35 -39 42 -13 11 -11 12 12 13 15 0 29 -3 31 -7z m303 -29 c48
-38 58 -66 13 -32 -52 38 -98 53 -163 51 -40 -1 -55 2 -45 8 8 6 46 8 86 7 62
-3 76 -7 109 -34z m2013 27 c11 -7 5 -19 -27 -58 -23 -27 -57 -60 -74 -73
l-33 -23 37 39 c44 47 60 83 47 107 -8 14 -6 17 13 17 13 0 29 -4 37 -9z
m-1596 -61 l7 -55 -25 30 c-13 17 -24 34 -25 39 0 9 31 48 35 44 1 -2 5 -28 8
-58z m589 -35 c-73 -8 -148 -17 -165 -21 -18 -3 -29 -3 -24 2 16 16 126 32
222 32 l100 0 -133 -13z m-2294 -62 l27 -13 -30 6 c-32 6 -65 30 -65 47 0 6 9
2 21 -9 11 -10 33 -24 47 -31z m3361 0 c1 -10 -5 -10 -24 -1 -24 11 -24 12 -8
30 17 19 18 19 24 1 4 -10 8 -24 8 -30z m-2949 -31 c29 -14 35 -22 33 -45 -2
-24 -88 -187 -98 -187 -2 0 10 36 26 80 33 90 38 140 14 140 -9 0 -36 -19 -62
-42 -42 -39 -46 -41 -40 -18 3 14 9 42 13 63 6 38 7 39 43 32 20 -3 52 -14 71
-23z m953 -9 c-27 -21 -35 -15 -17 13 13 19 19 22 25 12 6 -8 2 -18 -8 -25z
m1298 -52 c39 -61 38 -73 -8 -69 -34 3 -38 7 -49 43 -6 22 -14 58 -18 80 l-8
40 28 -25 c15 -14 40 -45 55 -69z m-821 64 c0 -1 -6 -8 -13 -14 -11 -8 -18 -7
-30 7 -16 18 -15 18 13 14 17 -2 30 -5 30 -7z m-1167 -12 c-7 -2 -19 -2 -25 0
-7 3 -2 5 12 5 14 0 19 -2 13 -5z m1840 -131 c-13 -22 -53 -28 -53 -10 0 24
22 132 28 143 4 6 13 -18 21 -53 11 -46 12 -68 4 -80z m-470 81 c-43 -28 -83
-86 -83 -122 0 -32 -18 -25 -24 9 -15 75 -15 86 -7 98 9 14 90 40 131 41 21 1
19 -2 -17 -26z m-1915 -25 c-8 -13 -23 -38 -32 -56 -22 -43 -28 -37 -15 14 13
46 26 64 46 64 14 0 14 -3 1 -22z m32 -92 c-12 -32 -23 -56 -25 -54 -2 2 7 38
18 80 14 48 23 69 25 55 2 -13 -7 -49 -18 -81z m1375 60 c49 -43 50 -44 49
-99 -2 -67 -20 -100 -99 -177 -92 -90 -99 -115 -65 -234 19 -67 19 -74 4 -190
-22 -171 -19 -163 -83 -230 l-59 -60 -43 13 c-36 10 -169 64 -576 231 -27 11
-27 11 -53 224 l-21 169 30 31 c42 44 63 99 72 193 4 45 10 86 13 92 4 6 26 0
56 -16 65 -34 188 -36 305 -5 44 11 110 25 146 31 37 6 109 24 160 40 52 17
99 30 104 30 6 1 33 -19 60 -43z m-955 -22 c0 -27 -4 -43 -10 -39 -5 3 -10 14
-10 24 0 9 -5 22 -11 28 -13 13 -4 33 17 33 10 0 14 -13 14 -46z m-311 -42
c-14 -43 -67 -152 -74 -152 -3 0 8 26 23 58 16 31 35 82 43 112 8 30 15 47 17
37 2 -9 -2 -34 -9 -55z m234 -55 c-4 -57 -2 -91 6 -106 7 -12 10 -25 7 -28 -5
-6 -56 90 -56 107 0 13 41 110 46 110 2 0 0 -37 -3 -83z m2889 -12 c-6 -11
-24 -28 -42 -38 l-31 -19 19 39 c11 21 25 56 32 78 l14 40 8 -40 c5 -23 5 -48
0 -60z m153 66 c17 -10 46 -33 65 -50 l35 -32 -33 16 c-18 9 -54 17 -80 19
-48 4 -61 18 -48 52 7 19 25 18 61 -5z m-775 -34 c-117 -52 -157 -73 -185 -99
l-34 -29 -10 38 c-7 23 -7 41 -1 47 8 8 205 53 240 54 8 0 4 -4 -10 -11z
m-2210 -75 c0 -10 -7 -27 -15 -38 -13 -17 -13 -15 -3 19 12 41 18 47 18 19z
m-480 -27 c-13 -14 -30 -25 -38 -25 -8 0 0 11 19 24 44 31 48 32 19 1z m1738
-34 c-13 -21 -28 -19 -28 5 0 8 9 14 20 14 17 0 19 -3 8 -19z m-95 -64 c28
-62 23 -64 -38 -14 -29 24 -29 25 -11 52 10 14 19 25 20 23 2 -1 15 -29 29
-61z m221 37 c9 -23 7 -36 -3 -30 -12 8 -21 46 -11 46 4 0 11 -7 14 -16z
m1382 -29 c-11 -8 -25 -15 -30 -15 -6 1 0 7 14 15 32 19 40 18 16 0z m453 -27
c13 -38 0 -26 -17 15 -7 16 -8 26 -3 23 5 -3 14 -20 20 -38z m-1080 -40 c1 -5
-23 -8 -53 -8 -58 0 -54 -3 -72 62 -4 14 8 11 60 -15 35 -18 65 -35 65 -39z
m-2311 14 c24 -44 50 -110 29 -77 -25 40 -66 75 -88 75 -21 0 -22 1 -4 20 26
29 38 25 63 -18z m2892 34 c0 -2 -7 -7 -16 -10 -8 -3 -12 -2 -9 4 6 10 25 14
25 6z m-1664 -48 c-17 -34 -21 -61 -21 -130 0 -47 -3 -84 -6 -82 -10 6 -59
132 -59 151 0 15 85 101 101 103 4 0 -3 -19 -15 -42z m-1686 -14 c0 -8 -4 -12
-10 -9 -11 7 -54 -76 -95 -183 -16 -39 -30 -71 -32 -69 -7 7 47 150 82 217 34
64 55 81 55 44z m2025 6 c13 -22 -6 -30 -36 -15 -16 9 -29 18 -29 20 0 10 59
5 65 -5z m150 -98 c-7 -8 -55 20 -55 32 0 8 -3 23 -7 33 -3 10 10 0 29 -22 20
-22 35 -41 33 -43z m-2200 -7 c-9 -36 -19 -64 -21 -62 -3 2 4 34 13 70 10 36
19 64 22 62 2 -3 -4 -34 -14 -70z m2889 2 c-49 -33 -64 -32 -64 5 0 17 21 23
84 27 27 1 25 -1 -20 -32z m-155 -1 c7 -8 15 -31 18 -53 l6 -38 -47 45 c-25
24 -46 48 -46 52 0 14 57 9 69 -6z m6 -97 c34 -13 -44 -9 -100 6 l-50 14 65
-6 c36 -3 74 -9 85 -14z m-146 -76 c90 -21 157 -39 149 -41 -20 -4 -234 44
-307 69 -67 23 -54 20 158 -28z m-1998 -60 c-8 -14 -10 -7 -11 33 0 28 3 54 8
58 11 12 14 -72 3 -91z m-571 57 c0 -5 -5 -10 -11 -10 -5 0 -7 5 -4 10 3 6 8
10 11 10 2 0 4 -4 4 -10z m3908 -105 c1 -62 -5 -76 -57 -120 l-24 -20 17 32
c19 38 45 144 47 193 l1 35 8 -30 c4 -16 8 -57 8 -90z m-4048 34 c-7 -11 -14
-18 -17 -15 -8 8 5 36 17 36 7 0 7 -6 0 -21z m257 -11 c-3 -8 -6 -5 -6 6 -1
11 2 17 5 13 3 -3 4 -12 1 -19z m128 -17 c-3 -6 -14 -11 -23 -11 -15 1 -15 2
2 15 21 16 32 13 21 -4z m1416 -37 l24 -26 -30 4 c-23 2 -30 8 -31 26 -2 29 7
28 37 -4z m-1661 -53 c0 -16 3 -38 7 -48 4 -12 0 -10 -15 7 -32 37 -27 10 18
-98 43 -103 34 -105 -24 -8 -40 66 -45 103 -19 147 22 37 33 37 33 0z m335 11
c-6 -5 -39 -29 -75 -54 -90 -63 -128 -107 -67 -77 21 10 21 9 -2 -10 -53 -47
-57 -4 -4 46 41 39 133 103 147 103 6 0 6 -3 1 -8z m35 0 c0 -5 -14 -21 -31
-38 l-32 -29 24 37 c23 36 39 48 39 30z m-572 -29 c-15 -18 -33 -61 -41 -98
-3 -11 -5 -4 -6 16 -1 25 7 46 27 71 15 20 29 34 31 32 2 -2 -3 -12 -11 -21z
m-2664 -101 c39 -79 58 -111 122 -219 15 -26 15 -27 -1 -8 -36 43 -183 315
-170 315 3 0 25 -40 49 -88z m2733 11 c-3 -10 -5 -2 -5 17 0 19 2 27 5 18 2
-10 2 -26 0 -35z m-3357 32 c0 -2 -14 -12 -31 -21 -17 -8 -28 -11 -24 -4 4 6
17 15 29 20 27 11 26 11 26 5z m398 -1 c22 -4 38 -17 52 -41 12 -20 20 -36 18
-37 -2 -1 -32 17 -66 41 -63 43 -64 49 -4 37z m4627 -84 l14 -28 -37 11 c-48
14 -48 14 -27 37 21 23 30 19 50 -20z m-609 6 c18 -14 17 -15 -20 -31 -41 -18
-56 -15 -31 5 8 7 15 19 15 26 0 18 11 18 36 0z m-4491 -83 c-4 -30 -9 -53
-11 -50 -3 2 -1 35 3 73 4 38 9 61 11 50 2 -10 1 -43 -3 -73z m3405 67 c-19
-12 -41 -12 -58 -1 -9 5 -2 8 18 9 18 0 35 3 38 6 3 3 8 4 11 0 3 -3 -1 -9 -9
-14z m4050 -8 c0 -5 -12 -14 -27 -21 l-28 -12 25 21 c29 22 30 23 30 12z
m-3637 -46 l-6 -39 -18 24 c-10 13 -19 27 -19 30 0 6 43 28 47 25 1 -1 0 -19
-4 -40z m2071 -36 c72 -21 165 -48 206 -59 l75 -21 -80 6 c-133 10 -323 69
-357 112 -11 13 -10 15 6 9 10 -4 78 -25 150 -47z m-1234 14 c-45 -19 -50 -17
-16 5 17 11 34 17 39 14 5 -3 -5 -12 -23 -19z m144 -35 c-15 -16 -28 -28 -30
-26 -1 1 0 16 3 33 4 27 8 30 30 26 l24 -5 -27 -28z m-322 19 c-6 -7 -25 -21
-42 -31 -31 -19 -31 -19 -19 1 12 20 43 40 63 41 5 1 4 -5 -2 -11z m-1132 -13
c0 -7 -103 -65 -115 -65 -5 1 3 8 18 16 53 29 20 25 -48 -6 -37 -17 -70 -29
-72 -27 -3 4 123 63 157 74 13 4 13 4 0 -6 -11 -8 -11 -11 -2 -11 7 0 15 7 18
15 5 13 44 22 44 10z m175 -15 c-10 -12 -24 -19 -30 -16 -7 2 -18 0 -26 -6
-11 -8 -10 -9 4 -4 24 8 21 -1 -4 -15 -15 -8 -19 -8 -15 0 10 16 8 15 -100
-35 -151 -71 -210 -96 -199 -85 12 11 366 180 379 181 5 0 1 -9 -9 -20z m1663
-15 c7 -14 12 -32 12 -40 0 -18 -59 -85 -113 -127 l-40 -32 38 50 c44 56 74
119 75 152 0 29 14 28 28 -3z m-1572 -72 l27 -36 -24 6 c-13 4 -51 7 -84 7
l-60 0 45 30 c25 16 50 29 56 29 7 1 24 -15 40 -36z m669 29 c-6 -5 -46 -38
-90 -74 -151 -125 -192 -183 -86 -122 l46 27 -45 -47 c-24 -25 -48 -46 -52
-46 -5 0 -13 11 -19 24 -24 52 53 142 179 210 68 36 84 43 67 28z m2779 -24
c-17 -13 -42 -36 -56 -53 l-26 -29 -7 33 c-8 39 -5 43 48 58 64 17 74 15 41
-9z m440 -183 c4 -70 3 -85 -3 -50 -12 75 -22 240 -11 190 5 -22 11 -85 14
-140z m-600 113 c13 -29 26 -66 30 -83 4 -16 9 -39 12 -50 2 -11 -5 -2 -17 20
-30 56 -84 110 -132 131 -38 18 -39 19 -16 25 13 4 41 7 62 8 37 1 39 -1 61
-51z m-6159 -38 c40 -65 39 -72 -12 -102 l-28 -16 0 89 c0 49 1 89 2 89 1 0
18 -27 38 -60z m3264 24 c6 -6 -21 -34 -33 -34 -6 0 -20 12 -30 27 l-19 26 39
-7 c21 -5 41 -10 43 -12z m-3109 -34 c13 -8 13 -10 -2 -10 -9 0 -20 5 -23 10
-8 13 5 13 25 0z m3349 -52 c-35 -55 -40 -69 -37 -111 l3 -49 -29 6 c-16 3
-35 6 -43 6 -21 0 29 87 89 154 27 31 51 56 54 56 2 0 -15 -28 -37 -62z m991
17 c8 -10 10 -34 5 -80 -8 -73 -19 -90 -29 -44 -3 18 -22 47 -42 65 l-35 34
33 20 c39 24 52 25 68 5z m-4200 -75 c0 -3 -25 -3 -56 -2 -76 5 -69 -16 17
-45 l64 -23 -69 3 c-53 2 -71 7 -82 22 -22 30 -16 54 18 75 31 19 31 19 70 -3
21 -12 38 -24 38 -27z m4045 -7 c-131 -109 -200 -152 -311 -197 -102 -41 -112
-39 -28 7 117 64 262 152 314 191 51 38 71 37 25 -1z m-5091 -46 c4 -19 3 -26
-4 -22 -5 3 -10 18 -10 32 0 32 5 28 14 -10z m5376 -130 c-16 -201 -31 -263
-26 -107 4 116 24 275 34 266 3 -3 -1 -75 -8 -159z m-976 109 c-17 -15 -41
-25 -59 -25 -27 0 -25 2 25 27 30 15 57 26 59 25 2 -1 -10 -13 -25 -27z
m-1464 0 c0 -6 -104 -72 -149 -96 -36 -18 -48 -20 -68 -11 -13 6 -22 15 -18
21 3 5 43 21 88 35 45 14 96 32 112 39 36 17 35 17 35 12z m-2234 -53 c-12
-22 -15 -24 -16 -9 0 18 -2 18 -26 -5 -14 -13 -51 -63 -81 -111 -31 -48 -58
-86 -59 -85 -10 10 24 92 54 132 34 45 129 121 139 111 3 -2 -2 -17 -11 -33z
m124 27 c0 -5 -9 -14 -21 -20 -19 -11 -20 -10 -9 9 11 22 30 29 30 11z m3046
-77 c-15 -26 -36 -59 -47 -73 -19 -25 -19 -24 1 28 11 29 20 60 20 69 0 20 32
45 44 33 4 -4 -4 -30 -18 -57z m158 51 c5 -14 4 -15 -9 -4 -17 14 -19 20 -6
20 5 0 12 -7 15 -16z m-1787 -10 c-3 -3 -12 -4 -19 -1 -8 3 -5 6 6 6 11 1 17
-2 13 -5z m4729 -146 c-4 -84 -10 -169 -15 -188 -7 -33 -8 -31 -14 29 -10 91
-9 168 4 237 11 61 16 74 26 74 3 0 3 -69 -1 -152z m-4783 135 c-7 -2 -21 -2
-30 0 -10 3 -4 5 12 5 17 0 24 -2 18 -5z m-1023 -12 c35 -7 19 -9 -75 -10
-104 -1 -118 -3 -102 -15 10 -8 51 -22 90 -33 l72 -18 -55 -5 c-34 -4 -68 -1
-90 8 -40 15 -92 61 -84 74 6 10 183 9 244 -1z m948 2 c-10 -2 -26 -2 -35 0
-10 3 -2 5 17 5 19 0 27 -2 18 -5z m1709 -13 c-27 -39 -242 -288 -246 -284 -2
2 27 42 64 90 91 116 236 271 182 194z m-1779 3 c-10 -2 -26 -2 -35 0 -10 3
-2 5 17 5 19 0 27 -2 18 -5z m2007 -102 c34 -18 36 -21 16 -21 -32 0 -151 21
-151 26 0 3 10 18 22 34 l22 30 25 -24 c14 -13 44 -33 66 -45z m-1725 9 c0
-11 -4 -20 -9 -20 -11 0 -22 26 -14 34 12 12 23 5 23 -14z m275 10 c3 -6 -4
-10 -18 -10 -29 0 -136 -67 -159 -101 l-17 -24 0 31 c-1 58 44 93 139 108 45
6 49 6 55 -4z m1274 -77 c-64 -108 -249 -374 -249 -360 0 27 248 397 266 397
3 0 -4 -17 -17 -37z m-3653 -38 c-107 -47 -176 -94 -263 -181 -91 -91 -77 -59
19 42 82 86 116 109 218 146 106 38 120 34 26 -7z m1899 5 c13 -6 -12 -9 -73
-9 -60 -1 -91 3 -87 9 7 12 132 12 160 0z m-1535 -93 c-19 -50 -113 -207 -124
-207 -3 0 28 67 67 149 69 143 101 175 57 58z m1286 -45 c-13 -12 -17 8 -10
40 l9 33 3 -33 c2 -19 1 -36 -2 -40z m362 -4 c-3 -27 -11 -55 -18 -61 -10 -10
-12 -8 -6 6 3 10 6 41 6 68 0 34 4 48 11 43 7 -4 9 -26 7 -56z m-1538 0 c0 -5
-9 -8 -20 -8 -16 0 -20 7 -20 33 l0 32 20 -25 c11 -14 20 -28 20 -32z m1304
25 c-4 -10 -8 -37 -9 -60 0 -28 -5 -43 -12 -43 -9 0 -13 19 -13 60 0 54 2 60
21 60 17 0 19 -4 13 -17z m136 -8 c0 -14 -1 -25 -3 -25 -2 0 -14 11 -27 25
l-23 25 26 0 c22 0 27 -5 27 -25z m1329 -7 c-45 -65 -180 -237 -191 -244 -14
-9 -7 1 111 154 88 115 130 161 80 90z m-2409 -18 l55 -7 -60 0 c-33 -1 -103
3 -155 7 l-95 7 100 0 c55 1 125 -2 155 -7z m1365 -11 c4 -5 18 -15 32 -20 34
-13 26 -17 -19 -11 -29 3 -38 9 -38 23 0 21 15 25 25 8z m-555 -39 c0 -18 -6
-20 -72 -19 -70 1 -71 2 -26 9 25 5 55 13 65 19 26 15 33 13 33 -9z m440 0 c0
-14 -7 -20 -22 -20 -20 0 -21 1 -3 20 10 11 20 20 22 20 1 0 3 -9 3 -20z m490
-87 c-9 -15 -10 -12 -6 16 3 18 7 48 8 65 1 19 3 13 5 -16 2 -26 -1 -56 -7
-65z m-660 78 c0 -5 -9 -11 -20 -14 -22 -6 -28 8 -7 16 19 8 27 8 27 -2z
m-1330 -31 c-30 -4 -93 -10 -139 -12 -72 -4 -81 -3 -66 9 14 9 53 13 139 12
101 -1 112 -3 66 -9z m6238 -135 c-1 -39 -1 -39 -8 10 -5 28 -8 66 -8 85 0 32
1 31 9 -10 4 -25 7 -63 7 -85z m-5539 106 l24 -7 -24 -15 c-50 -32 -53 -33
-46 -16 4 11 -2 22 -16 32 -21 15 -21 15 8 14 17 -1 41 -4 54 -8z m3733 -241
c4 -102 2 -143 -4 -120 -5 19 -11 107 -13 195 -3 100 -1 145 4 120 5 -22 11
-110 13 -195z m-4299 183 c-23 -2 -64 -2 -90 0 -26 2 -7 3 42 3 50 0 71 -1 48
-3z m766 3 c-2 -2 -24 -6 -49 -10 -31 -4 -40 -3 -30 4 13 9 89 15 79 6z m767
-11 c-25 -19 -36 -19 -36 0 0 10 10 15 28 15 26 -1 26 -1 8 -15z m257 -60 l7
-30 -15 25 c-8 14 -14 39 -14 55 1 29 1 29 8 5 4 -14 11 -38 14 -55z m-113 22
c0 -20 -4 -23 -35 -19 -46 5 -117 -36 -152 -90 -29 -43 -43 -37 -21 9 9 20 39
41 108 75 52 26 96 48 98 48 1 0 2 -10 2 -23z m4856 -58 c-18 -69 -68 -168
-98 -196 -15 -13 -13 -5 9 32 31 52 76 159 88 208 4 15 9 26 12 23 3 -2 -3
-32 -11 -67z m-4769 -51 c-2 -18 -4 -4 -4 32 0 36 2 50 4 33 2 -18 2 -48 0
-65z m773 25 c-41 -74 -177 -280 -190 -288 -6 -4 4 18 21 47 46 78 191 298
196 298 3 0 -9 -26 -27 -57z m-3000 9 c0 -22 -7 -30 -30 -39 -36 -14 -36 -12
-7 32 27 42 37 44 37 7z m297 1 c-8 -16 -17 -35 -20 -43 -3 -8 -6 4 -6 28 -1
36 2 42 19 42 19 0 20 -2 7 -27z m521 2 c6 -6 -11 -85 -19 -85 -5 0 -9 6 -9
14 0 7 -11 30 -26 51 l-25 37 38 -7 c21 -4 39 -8 41 -10z m-718 -15 c6 -11 8
-20 6 -20 -3 0 -10 9 -16 20 -6 11 -8 20 -6 20 3 0 10 -9 16 -20z m4843 -226
c9 -17 32 -53 52 -80 l36 -49 -55 58 c-40 41 -60 71 -71 109 -21 71 -18 104 4
43 10 -27 25 -64 34 -81z m2157 84 c0 -30 -1 -31 -17 -16 -13 14 -14 20 -3 32
18 22 20 20 20 -16z m-6910 -30 c0 -57 -5 -57 -31 1 -18 42 -16 51 13 51 15 0
18 -8 18 -52z m730 -72 c0 -5 -7 -3 -15 4 -8 7 -15 22 -15 34 1 20 2 20 15 -4
8 -14 14 -29 15 -34z m1009 9 c0 -5 -6 -1 -14 9 -8 10 -11 24 -8 29 6 10 21
-16 22 -38z m715 -32 c-18 -39 -43 -101 -55 -137 -12 -37 -24 -65 -26 -62 -6
6 27 126 44 161 19 38 67 115 70 112 1 -1 -14 -34 -33 -74z m-3499 -10 c-4
-10 -34 -90 -66 -178 -32 -88 -58 -156 -59 -152 -1 30 76 270 98 304 28 45 39
55 27 26z m5664 -23 c11 -24 11 -24 -3 -6 -9 11 -16 24 -16 30 0 12 5 7 19
-24z m-2898 -23 l23 -32 -23 20 c-13 11 -27 28 -33 39 -16 29 7 11 33 -27z
m4672 -152 c-11 -68 -33 -98 -101 -134 -18 -9 -14 -1 17 40 38 51 70 135 72
195 1 19 4 11 9 -21 4 -27 5 -63 3 -80z m-1803 14 c-41 -95 -112 -223 -130
-234 -5 -3 7 29 26 72 42 91 136 265 141 259 2 -2 -15 -46 -37 -97z m1894 37
c-12 -30 -24 -16 -24 27 l1 42 14 -27 c8 -15 12 -34 9 -42z m-3862 -3 c-37
-86 -55 -176 -61 -303 -7 -124 -7 -125 -20 -80 -17 56 -9 202 14 280 17 54 75
163 83 155 3 -2 -5 -26 -16 -52z m-692 27 c0 -5 -2 -10 -4 -10 -3 0 -8 5 -11
10 -3 6 -1 10 4 10 6 0 11 -4 11 -10z m-984 -28 c-10 -2 -26 3 -35 12 -15 15
-13 16 19 4 26 -9 30 -13 16 -16z m-126 -27 l23 -25 -24 0 c-19 0 -24 5 -24
25 0 14 0 25 1 25 0 0 11 -11 24 -25z m388 18 c-15 -2 -42 -2 -60 0 -18 2 -6
4 27 4 33 0 48 -2 33 -4z m5452 -46 c0 -37 -1 -39 -14 -22 -8 12 -20 16 -35
12 -28 -7 -27 1 6 35 33 34 43 28 43 -25z m-4800 12 c0 -5 -9 -9 -19 -9 -14 0
-18 5 -14 20 4 16 8 18 19 9 8 -6 14 -15 14 -20z m2975 -35 c39 -31 78 -60 88
-66 36 -19 10 -17 -44 3 -31 13 -80 22 -116 23 -35 0 -63 6 -63 11 0 14 49 85
58 85 4 0 39 -25 77 -56z m-4724 -110 c6 -8 4 -16 -7 -25 -24 -20 -34 5 -33
86 l1 70 15 -60 c7 -32 18 -64 24 -71z m354 106 c-11 -18 -78 -29 -141 -23
-36 3 -62 8 -60 10 3 3 47 8 98 13 51 4 97 8 101 9 5 0 6 -3 2 -9z m1712 -81
l-15 -34 5 45 c6 60 16 83 20 49 2 -15 -2 -42 -10 -60z m-1507 7 c-62 -17
-109 -43 -147 -79 l-33 -31 0 37 c0 27 7 45 25 62 22 23 31 25 112 24 l88 -1
-45 -12z m1334 -26 l17 -34 -31 29 c-21 20 -26 31 -18 36 7 5 13 7 14 6 0 -1
9 -18 18 -37z m-2024 -15 l0 -35 -77 0 c-42 0 -73 3 -69 7 3 4 37 19 74 34 37
15 68 27 70 28 1 1 2 -15 2 -34z m1880 -15 c16 -16 20 -33 19 -82 l-1 -63 -14
41 c-8 23 -31 60 -50 83 l-36 41 31 0 c18 0 40 -9 51 -20z m-1620 -28 c-17
-21 -39 -61 -50 -88 l-19 -49 -1 43 c0 63 42 132 82 132 16 0 15 -5 -12 -38z
m150 -9 l-1 -48 -16 30 c-8 17 -22 38 -31 48 -14 16 -13 17 16 17 31 0 32 -1
32 -47z m689 15 c25 -6 49 -13 53 -17 4 -3 -68 -4 -160 -3 -161 4 -181 6 -170
17 24 24 183 26 277 3z m967 3 c5 -5 27 -11 48 -13 l40 -3 -25 -28 -24 -29
-33 41 c-18 23 -29 41 -24 41 4 0 12 -4 18 -9z m-526 -34 l35 -17 -40 5 c-22
2 -105 7 -185 11 -174 9 -148 24 35 20 88 -2 129 -7 155 -19z m-2129 -49 c-7
-30 -20 -117 -30 -193 -14 -103 -19 -125 -20 -85 -1 87 43 350 56 336 3 -2 0
-29 -6 -58z m2816 -3 c-6 -19 -14 -35 -19 -35 -11 0 -10 7 7 40 21 40 26 38
12 -5z m-2467 -10 c0 -3 -21 -15 -46 -25 -26 -11 -60 -30 -76 -42 l-31 -21 17
25 c19 28 49 47 97 58 19 4 35 8 37 9 1 1 2 -1 2 -4z m330 -15 c0 -20 -1 -20
-25 -4 -14 9 -25 18 -25 20 0 2 11 4 25 4 18 0 25 -5 25 -20z m689 -3 c-33
-28 -66 -76 -85 -124 -14 -38 -14 -38 -9 34 7 106 10 109 85 112 l35 1 -26
-23z m1249 -162 l-1 -130 -8 90 c-20 234 -20 233 -4 200 10 -21 14 -67 13
-160z m247 155 c-10 -11 -23 -20 -28 -20 -6 0 0 11 13 25 27 29 42 25 15 -5z
m4015 0 c-85 -68 -203 -111 -257 -93 -26 9 -22 11 47 32 41 12 109 35 150 50
92 35 91 35 60 11z m-4674 -10 c60 0 74 -25 73 -132 l0 -93 -21 60 c-23 68
-47 108 -92 148 -20 18 -24 27 -13 23 10 -3 34 -6 53 -6z m1047 -67 c-13 -2
-33 -2 -45 0 -13 2 -3 4 22 4 25 0 35 -2 23 -4z m-494 -6 c-2 -1 -14 -11 -26
-21 -23 -19 -23 -19 -23 2 0 17 6 22 27 22 14 0 24 -1 22 -3z m-2684 -77 c-7
-36 -19 -114 -26 -175 -11 -96 -14 -106 -22 -80 -15 44 8 236 34 287 11 22 22
38 24 36 2 -2 -3 -32 -10 -68z m6205 53 c54 -3 133 0 184 6 48 7 90 10 93 7 7
-6 -93 -33 -153 -41 -58 -7 -177 7 -244 30 -40 13 -41 14 -10 9 19 -2 78 -7
130 -11z m-3373 -74 c1 -57 0 -66 -7 -39 -16 70 -19 121 -7 117 8 -2 13 -32
14 -78z m-525 -124 c0 -64 -6 -133 -15 -165 l-15 -55 -1 90 c0 50 2 135 6 189
9 135 26 94 25 -59z m717 135 c-14 -4 -38 -15 -52 -25 -27 -17 -27 -17 -27 9
0 25 2 26 53 25 41 -1 47 -2 26 -9z m159 -9 c8 -5 12 -15 10 -23 -2 -11 -10
-9 -37 9 -32 21 -32 23 -10 23 13 0 30 -4 37 -9z m138 -167 c0 -1 -12 2 -25 7
-18 7 -22 14 -17 32 3 12 6 40 6 62 1 37 3 34 20 -30 10 -38 17 -71 16 -71z
m-2206 -70 c-15 -265 -19 -281 -14 -54 3 176 10 257 20 247 2 -2 -1 -89 -6
-193z m-523 124 c-2 -13 -4 -5 -4 17 -1 22 1 32 4 23 2 -10 2 -28 0 -40z
m4438 -318 c15 -47 41 -112 57 -145 32 -67 9 -45 -27 25 -57 111 -90 293 -77
418 6 62 7 57 13 -73 5 -113 12 -156 34 -225z m-5741 111 c12 -34 -6 -20 -42
34 -28 42 -29 47 -19 97 l10 52 22 -80 c12 -43 25 -90 29 -103z m1411 134 c7
-29 7 -29 -8 -10 -9 11 -17 29 -17 40 0 27 17 7 25 -30z m6421 -58 c-9 -30
-25 -75 -36 -99 -23 -48 -21 -42 17 78 30 92 44 108 19 21z m-7264 -11 c0 -26
-2 -50 -6 -53 -3 -4 -6 20 -6 52 0 69 10 69 12 1z m2775 -98 c-2 -18 -4 -6 -4
27 0 33 2 48 4 33 2 -15 2 -42 0 -60z m-3439 19 c30 -27 28 -34 -7 -29 -26 4
-30 1 -33 -24 l-3 -27 -17 35 c-15 32 -15 38 -2 57 16 22 25 21 62 -12z m3785
26 c-7 -2 -21 -2 -30 0 -10 3 -4 5 12 5 17 0 24 -2 18 -5z m340 -54 c-58 -13
-71 -11 -66 14 5 24 5 24 49 8 44 -16 45 -16 17 -22z m207 21 c13 -9 13 -10 0
-10 -8 0 -22 5 -30 10 -13 9 -13 10 0 10 8 0 22 -5 30 -10z m65 -32 c14 -6 25
-15 25 -20 0 -8 -17 -1 -50 22 -20 13 -7 13 25 -2z m-4498 -76 c43 -57 42 -72
-2 -33 -36 31 -115 60 -169 62 l-31 1 30 8 c17 5 55 7 85 7 51 -2 56 -4 87
-45z m264 -127 c81 -163 74 -171 -9 -10 -37 72 -76 144 -86 160 l-18 30 26
-30 c15 -16 54 -84 87 -150z m3704 158 l30 -7 -30 -7 c-75 -17 -165 -7 -165
18 0 13 11 14 68 9 37 -4 81 -10 97 -13z m-3131 -68 c5 -49 4 -66 -3 -55 -10
13 -16 139 -7 129 2 -2 7 -35 10 -74z m4731 -99 c147 -128 149 -138 5 -27 -99
77 -210 179 -210 193 0 10 45 -27 205 -166z m-2384 -106 c-11 -121 -35 -201
-26 -90 2 36 8 133 12 215 l7 150 9 -85 c5 -51 4 -128 -2 -190z m1379 164 c89
-72 233 -211 190 -182 -44 29 -262 204 -315 253 l-40 37 50 -28 c28 -15 79
-51 115 -80z m-2765 38 c-6 -26 -7 -27 -22 -7 -8 11 -19 28 -25 38 -8 16 -7
18 10 13 12 -4 24 -1 28 6 12 18 18 -16 9 -50z m-1098 -34 c-2 -18 -4 -6 -4
27 0 33 2 48 4 33 2 -15 2 -42 0 -60z m2842 19 c0 -29 -4 -74 -9 -102 -6 -42
-8 -33 -9 58 -1 70 3 106 9 102 6 -3 10 -30 9 -58z m1092 46 c13 -16 12 -17
-3 -4 -10 7 -18 15 -18 17 0 8 8 3 21 -13z m-824 -129 c-4 -69 -11 -133 -16
-142 -9 -16 -6 104 5 216 10 99 17 52 11 -74z m-1807 -121 c0 -98 -3 -134 -11
-126 -17 17 -23 126 -9 197 7 36 14 66 16 66 2 0 4 -62 4 -137z m-1001 -41
c12 -24 41 -64 63 -88 48 -52 38 -56 -28 -11 -78 52 -89 74 -91 180 l-3 92 18
-65 c10 -36 29 -85 41 -108z m4051 102 c0 -2 -9 0 -20 6 -11 6 -20 13 -20 16
0 2 9 0 20 -6 11 -6 20 -13 20 -16z m-4343 -21 c-3 -10 -5 -4 -5 12 0 17 2 24
5 18 2 -7 2 -21 0 -30z m-1397 -13 c-11 -16 -27 -46 -34 -67 l-13 -38 -22 35
c-11 19 -21 37 -21 40 0 5 96 57 108 59 2 1 -6 -12 -18 -29z m3773 -97 c-6
-113 -17 -173 -29 -160 -9 9 22 277 32 277 2 0 1 -53 -3 -117z m-2928 13 c33
-83 96 -283 94 -302 0 -8 -116 317 -135 381 -14 45 7 4 41 -79z m1634 24 l-1
-25 -8 25 c-4 14 -8 32 -9 40 -1 13 0 13 9 0 5 -8 9 -26 9 -40z m-2778 19 c41
-21 129 -95 129 -109 0 -4 -28 7 -62 25 -77 40 -145 56 -237 58 -39 1 -69 3
-66 5 7 8 141 40 168 41 15 1 46 -8 68 -20z m8880 -38 c-44 -53 -92 -96 -56
-51 26 34 88 100 93 100 2 0 -14 -22 -37 -49z m-2513 -131 c56 -24 100 -45 98
-47 -6 -7 -191 64 -271 105 -44 22 -91 49 -105 61 -15 13 15 3 75 -27 55 -27
146 -68 203 -92z m-4519 96 c24 -38 26 -46 9 -46 -6 0 -23 -10 -36 -22 -21
-20 -24 -20 -19 -5 4 10 7 39 7 63 0 53 11 56 39 10z m2842 -117 c-6 -51 -15
-97 -21 -103 -8 -8 -10 -4 -6 14 3 14 10 69 16 122 5 54 11 103 12 110 0 7 3
-1 5 -19 2 -18 0 -74 -6 -124z m1414 29 c78 -42 71 -52 -8 -12 -56 28 -172
107 -183 125 -4 7 22 -8 57 -32 35 -24 96 -61 134 -81z m910 24 c-6 -7 -35 18
-35 31 0 5 9 2 20 -8 11 -10 18 -20 15 -23z m-5521 -126 c9 -34 16 -75 16 -92
-1 -16 -16 32 -35 106 -19 74 -35 137 -34 140 1 13 40 -99 53 -154z m1396 109
c0 -17 51 -174 75 -230 8 -19 8 -19 -12 -2 -11 9 -27 17 -35 17 -33 0 -42 30
-46 148 -2 84 0 113 7 102 6 -8 11 -24 11 -35z m227 -44 c16 -9 16 -10 -4 -11
-43 0 -53 10 -53 54 l1 41 19 -37 c11 -20 28 -42 37 -47z m-1802 -54 c22 -68
34 -160 20 -145 -3 3 -19 57 -35 121 -17 64 -33 124 -36 134 -3 10 2 7 10 -7
9 -14 27 -60 41 -103z m7315 119 c0 -15 -119 -98 -163 -114 -96 -36 -103 -34
-22 7 44 22 102 56 130 75 51 37 55 39 55 32z m-3445 -65 c-127 -72 -203 -176
-212 -286 -2 -33 -8 -103 -13 -155 l-8 -95 2 125 c1 69 6 134 11 144 6 13 5
17 -3 13 -7 -5 -8 3 0 30 34 126 159 252 248 253 21 0 16 -5 -25 -29z m-927
-95 c-4 -44 -14 -89 -22 -100 -11 -18 -116 -72 -116 -60 0 2 16 24 35 50 19
25 51 79 71 120 20 42 37 74 39 72 1 -2 -2 -39 -7 -82z m137 -102 c-8 -20 -17
-35 -19 -33 -2 2 3 50 12 107 l17 103 3 -70 c2 -46 -2 -82 -13 -107z m-482
160 c20 -4 37 -9 37 -13 0 -8 -279 5 -287 13 -8 8 202 7 250 0z m3151 -43 c-2
-3 -12 3 -22 13 -16 17 -16 18 5 5 12 -7 20 -15 17 -18z m-4496 -19 l3 -22
-35 21 c-44 26 -45 31 -3 27 24 -2 33 -8 35 -26z m180 22 c32 -9 27 -21 -9
-22 -18 0 -42 -11 -55 -23 l-24 -22 0 30 c0 16 3 33 7 36 8 9 50 9 81 1z m637
-23 c32 -7 21 -9 -55 -9 -52 0 -108 4 -125 8 -42 11 128 11 180 1z m1125 -12
c0 -5 -4 -9 -10 -9 -5 0 -10 7 -10 16 0 8 5 12 10 9 6 -3 10 -10 10 -16z
m-723 -1 c62 -2 113 -7 113 -12 0 -11 -324 0 -370 13 -28 8 -16 9 55 6 50 -3
141 -6 202 -7z m1860 -58 c12 -14 22 -20 23 -14 0 5 -6 16 -12 24 -7 8 -3 7 8
-3 12 -10 35 -48 52 -85 32 -72 51 -128 34 -103 -8 11 -11 10 -15 -5 -3 -14
-5 -12 -6 7 0 14 -14 52 -30 84 -17 33 -27 63 -24 68 3 6 2 7 -4 4 -5 -3 -30
15 -54 41 -24 25 -33 38 -19 27 14 -11 35 -31 47 -45z m-529 18 c-12 -18 -35
-66 -50 -108 -29 -80 -38 -76 -13 7 13 45 67 133 81 133 3 0 -5 -14 -18 -32z
m1402 -33 c96 -29 201 -59 233 -66 31 -6 55 -14 53 -17 -17 -16 -415 94 -485
134 l-26 15 25 -7 c13 -4 103 -30 200 -59z m1617 59 c-3 -3 -12 -4 -19 -1 -8
3 -5 6 6 6 11 1 17 -2 13 -5z m-50 -10 c-3 -3 -12 -4 -19 -1 -8 3 -5 6 6 6 11
1 17 -2 13 -5z m-3725 -65 c2 -41 -1 -54 -19 -71 -34 -32 -44 -18 -23 31 11
24 20 54 20 67 0 46 18 24 22 -27z m1219 -11 c14 -18 31 -44 38 -58 10 -21 8
-20 -11 5 -12 17 -41 50 -63 74 -28 31 -32 39 -15 28 14 -9 37 -31 51 -49z
m2009 52 l25 -8 -25 -1 c-14 0 -32 4 -40 9 -13 9 -13 10 0 9 8 -1 26 -5 40 -9z
m-302 -26 c28 -4 52 -10 52 -14 0 -18 -60 -14 -125 7 -76 25 -73 25 73 7z
m-6845 -57 c46 -70 81 -140 112 -224 34 -92 9 -58 -70 99 -63 122 -88 178 -81
178 2 0 19 -24 39 -53z m6610 36 c89 -4 125 -9 117 -17 -12 -12 -245 7 -295
24 -28 9 -27 10 10 5 22 -3 98 -8 168 -12z m-2533 -39 l0 -34 -20 20 c-23 23
-25 31 -8 48 17 17 28 5 28 -34z m116 -54 l-31 -101 -3 78 c-4 105 1 123 37
123 l28 0 -31 -100z m3759 69 c-19 -17 -49 -53 -67 -80 -17 -27 -33 -49 -35
-49 -2 0 -3 29 -3 64 l0 63 53 16 c82 24 93 22 52 -14z m-7020 -154 c4 -52 2
-48 -14 35 -23 112 -24 131 -5 70 8 -25 17 -72 19 -105z m1320 115 l29 -30
-32 0 c-29 0 -32 3 -32 30 0 17 1 30 3 30 2 0 16 -13 32 -30z m-1134 -124 c20
-180 4 -183 -22 -3 -22 145 -22 163 -3 118 9 -19 19 -70 25 -115z m6653 122
c3 -13 7 -81 9 -153 l5 -130 -19 130 c-10 72 -21 140 -24 153 -4 15 -1 22 10
22 8 0 17 -10 19 -22z m-3339 -510 c11 -56 -1 -46 -19 15 -39 137 -44 296 -14
441 12 58 13 48 19 -179 3 -132 9 -257 14 -277z m3160 491 c-53 -26 -94 -66
-115 -112 l-17 -38 -7 32 c-3 17 -6 47 -6 65 0 39 15 48 104 63 78 13 84 12
41 -10z m-619 -2 c-55 -35 -104 -77 -133 -116 -37 -48 -42 -37 -22 44 15 57
27 67 102 75 34 4 64 8 67 8 3 0 -4 -5 -14 -11z m-388 -12 c2 -2 2 -18 0 -36
l-3 -34 -42 43 -42 44 42 -7 c23 -4 43 -9 45 -10z m-3563 -3 c-6 -4 -25 -21
-44 -37 -28 -25 -32 -26 -22 -8 12 23 49 53 65 53 6 0 6 -3 1 -8z m3731 -37
l-11 -45 -18 35 c-9 19 -21 35 -26 35 -5 0 -12 -33 -15 -72 -3 -40 -9 -118
-14 -173 -9 -96 -9 -97 -10 -30 -1 39 3 115 7 169 9 107 19 126 71 126 26 0
26 0 16 -45z m584 20 c0 -19 -9 -19 -34 0 -19 14 -19 15 7 15 17 0 27 -5 27
-15z m-1892 -194 c5 -47 5 -111 2 -141 -7 -52 -7 -51 -9 30 -1 47 -5 112 -10
145 -5 33 -12 78 -15 100 l-6 40 15 -44 c8 -25 19 -83 23 -130z m-2288 116
c-1 -18 -8 -43 -16 -57 l-15 -25 5 34 c3 18 6 47 6 63 0 17 4 27 10 23 6 -3
10 -21 10 -38z m-1125 13 c14 -6 15 -9 5 -9 -9 -1 -32 -15 -53 -32 -32 -26
-37 -28 -37 -12 0 27 28 63 48 62 9 0 26 -4 37 -9z m3272 -37 c-3 -10 -5 -2
-5 17 0 19 2 27 5 18 2 -10 2 -26 0 -35z m-7320 -8 c-42 -24 -92 -54 -110 -66
l-32 -22 30 32 c28 30 154 101 179 101 6 0 -24 -20 -67 -45z m4628 25 c22 -24
20 -24 -75 0 l-75 19 66 0 c54 1 69 -3 84 -19z m1123 -6 c-9 -9 -21 -13 -28
-9 -14 9 5 25 30 25 12 0 12 -3 -2 -16z m3610 -149 l-1 -70 -7 65 c-4 36 -8
90 -7 120 l0 55 7 -50 c5 -27 8 -81 8 -120z m-4642 54 c11 -22 11 -29 0 -38
-10 -8 -17 -2 -33 27 -11 20 -24 48 -28 62 l-7 25 27 -25 c15 -14 33 -37 41
-51z m969 21 l49 -49 -35 9 c-19 5 -72 13 -119 18 l-85 8 55 32 c30 17 62 32
70 32 9 0 38 -22 65 -50z m-1824 -166 c-6 -104 -11 -200 -12 -214 -1 -24 -1
-23 -10 5 -16 54 -22 199 -10 266 14 81 31 142 37 136 3 -3 1 -90 -5 -193z
m1247 149 c-10 -9 -31 -16 -48 -16 -17 0 -38 7 -48 16 -15 16 -12 17 48 17 60
0 63 -1 48 -17z m2252 -133 c0 -69 -17 -153 -25 -125 -2 6 -5 64 -8 130 -4
118 -4 119 14 96 15 -18 19 -40 19 -101z m-3957 -120 c4 -86 3 -106 -2 -65 -5
33 -11 114 -14 180 -3 78 -2 101 3 65 4 -30 10 -111 13 -180z m1607 169 c13
-7 13 -8 0 -8 -8 0 -26 6 -40 15 l-25 15 25 -7 c14 -3 32 -10 40 -15z m764 5
c10 -26 1 -29 -87 -31 l-82 -3 58 15 c32 8 66 19 75 25 24 13 29 12 36 -6z
m-391 -18 c8 -20 -2 -26 -37 -26 l-31 1 24 19 c28 24 37 25 44 6z m543 -84
c-6 -6 -86 18 -86 26 0 4 3 17 6 30 7 23 7 23 45 -14 21 -21 37 -39 35 -42z
m3441 16 c-3 -8 -6 -5 -6 6 -1 11 2 17 5 13 3 -3 4 -12 1 -19z m-7261 -151 c9
-82 -1 -70 -15 18 -21 130 -21 132 -6 87 8 -24 17 -71 21 -105z m983 -30 c1
-100 -11 -150 -42 -176 -21 -17 -22 -10 -2 79 8 36 18 112 22 170 6 88 8 98
14 65 5 -22 8 -84 8 -138z m216 -86 c-8 -8 -17 -12 -20 -9 -3 3 0 59 7 124
l13 119 7 -110 c5 -88 4 -113 -7 -124z m2064 193 c8 -7 -245 -2 -294 6 -30 5
19 6 120 3 94 -3 172 -7 174 -9z m-5712 -31 c-9 -44 12 -118 44 -162 16 -23
27 -41 23 -41 -12 0 -114 104 -114 117 0 17 40 113 47 113 3 0 3 -12 0 -27z
m7033 -100 c0 -2 -9 1 -20 7 -10 6 -24 27 -30 48 -16 60 -12 61 20 3 17 -30
30 -56 30 -58z m540 55 c-36 -29 -43 -21 -13 17 22 28 29 32 32 18 2 -9 -7
-25 -19 -35z m-1280 -7 c0 -16 -8 -35 -17 -42 -15 -13 -16 -11 -10 20 4 18 7
40 7 48 0 8 5 11 10 8 6 -3 10 -19 10 -34z m117 -3 c-3 -7 -5 -2 -5 12 0 14 2
19 5 13 2 -7 2 -19 0 -25z m1286 -12 c-3 -13 -15 -28 -28 -34 l-23 -11 21 34
c26 40 36 44 30 11z m-775 -28 c6 -13 23 -38 38 -55 15 -18 23 -33 18 -33 -20
0 -65 47 -73 78 -11 37 0 43 17 10z m1987 -121 c-14 -114 -31 -197 -41 -197
-7 0 5 90 27 206 10 56 19 105 19 110 0 4 2 5 5 2 3 -2 -2 -57 -10 -121z m155
-35 c-7 -57 -16 -116 -20 -130 -8 -26 -8 -25 -9 8 0 19 6 80 14 135 8 55 15
107 16 115 1 9 3 7 6 -5 3 -11 0 -66 -7 -123z m-9126 66 c41 -34 74 -63 73
-65 -1 -1 -31 12 -66 29 -42 20 -85 32 -127 36 -58 4 -64 3 -64 -14 0 -25 61
-152 100 -209 48 -70 27 -53 -41 32 -86 109 -96 131 -75 175 17 34 76 77 108
78 9 0 50 -28 92 -62z m3303 -33 c-4 -42 -13 -88 -21 -104 -13 -24 -89 -101
-101 -101 -2 0 10 21 27 46 35 53 87 178 88 212 0 12 3 22 6 22 4 0 4 -34 1
-75z m3160 8 c-2 -16 -4 -5 -4 22 0 28 2 40 4 28 2 -13 2 -35 0 -50z m-2617
-24 c12 -39 20 -73 17 -75 -2 -2 -11 22 -21 54 -26 87 -28 92 -22 92 3 0 15
-32 26 -71z m567 14 c-2 -1 -16 1 -33 6 -20 5 -30 15 -32 30 -4 23 -3 23 32
-5 19 -16 34 -29 33 -31z m-825 5 c-28 -11 -32 -9 -32 17 0 26 0 26 24 8 21
-16 22 -19 8 -25z m-172 -33 c16 -10 12 -22 -10 -28 -27 -7 -33 6 -24 56 l7
42 9 -32 c4 -18 13 -35 18 -38z m3907 49 c-3 -3 -12 -4 -19 -1 -8 3 -5 6 6 6
11 1 17 -2 13 -5z m-1807 -14 c10 -6 -22 -8 -95 -3 -60 3 -112 7 -114 9 -10 9
196 3 209 -6z m730 -10 c0 -17 -6 -20 -47 -19 l-48 0 45 19 c25 10 46 18 48
19 1 1 2 -8 2 -19z m140 14 c0 -12 -48 -63 -54 -57 -10 10 -7 38 6 51 12 12
48 17 48 6z m1110 1 c0 -2 -24 -17 -52 -31 -58 -29 -58 -23 0 12 38 23 52 28
52 19z m200 -27 c-30 -25 -134 -75 -175 -83 -16 -3 20 19 80 49 61 30 112 54
115 55 3 0 -6 -9 -20 -21z m-2740 -2 c27 -11 29 -14 14 -20 -11 -4 -25 0 -38
14 -24 24 -20 25 24 6z m-195 -6 c-3 -5 -25 -9 -48 -9 -40 1 -40 2 -12 9 44
11 67 11 60 0z m2488 -15 c20 -8 51 -15 69 -15 23 0 29 -3 21 -11 -11 -11 -88
8 -123 31 -22 14 -7 12 33 -5z m-71 -103 c-17 -5 -130 49 -162 77 -16 13 11 4
75 -26 55 -27 94 -49 87 -51z m-4478 -199 c7 -30 6 -33 -17 -33 -32 0 -37 26
-36 194 l1 131 22 -130 c13 -71 26 -145 30 -162z m2165 243 c9 -11 6 -12 -14
-8 -14 2 -25 8 -25 13 0 14 26 11 39 -5z m291 4 c-19 -4 -53 -11 -75 -14 -39
-6 -39 -6 -15 8 14 9 48 15 75 15 48 -1 48 -1 15 -9z m4840 -166 c25 -146 23
-290 -4 -359 -9 -22 -14 -29 -11 -15 33 146 28 259 -21 520 -4 23 -4 23 5 4 5
-12 19 -80 31 -150z m-5527 149 c-7 -2 -21 -2 -30 0 -10 3 -4 5 12 5 17 0 24
-2 18 -5z m1616 -4 c85 -2 90 -3 46 -9 -51 -8 -314 6 -324 17 -3 3 36 3 88 -1
52 -3 137 -7 190 -7z m-1439 -18 c0 -6 -5 -13 -11 -17 -6 -3 -17 -20 -25 -38
l-13 -31 -1 48 c0 44 2 47 25 47 14 0 25 -4 25 -9z m-4865 -27 c17 -27 17 -27
-6 -21 -13 4 -40 7 -59 7 l-35 0 30 20 c39 26 49 25 70 -6z m10114 -200 c5
-49 5 -114 1 -144 -6 -49 -7 -44 -9 46 0 56 -4 123 -7 150 -4 27 -4 47 -1 43
4 -3 11 -45 16 -95z m-10586 -6 c-17 -18 -48 -58 -68 -88 -37 -55 -39 -38 -4
31 19 38 72 89 92 89 6 0 -3 -15 -20 -32z m3480 -5 c-7 -2 -19 -2 -25 0 -7 3
-2 5 12 5 14 0 19 -2 13 -5z m2242 -22 c22 -10 46 -25 54 -34 12 -16 11 -16
-25 -1 -49 21 -131 13 -180 -15 -19 -12 -38 -21 -41 -21 -15 0 54 63 82 76 40
18 63 17 110 -5z m3916 -76 c-14 -58 -19 -70 -20 -46 -1 33 31 152 36 135 1
-5 -6 -45 -16 -89z m-2838 25 c26 -16 47 -34 47 -40 0 -6 -11 -3 -25 6 -49 32
-134 35 -199 9 -34 -14 -8 13 32 35 52 27 91 25 145 -10z m3016 -247 c0 -144
-4 -249 -8 -238 -17 42 -34 208 -29 287 5 75 27 208 35 208 2 0 3 -116 2 -257z
m-2592 30 c-3 -115 -11 -224 -16 -243 -11 -37 -11 -27 5 313 4 75 9 137 12
137 2 0 2 -93 -1 -207z m-277 153 c0 -12 -5 -7 -19 24 -11 24 -11 24 3 6 9
-11 16 -24 16 -30z m-5569 -67 c17 -9 19 -13 8 -20 -29 -19 -56 -9 -81 29 -68
103 -67 100 -6 50 32 -26 67 -52 79 -59z m5138 69 c-7 -13 -18 -43 -26 -68
l-13 -45 6 45 c3 25 12 55 20 68 19 29 28 29 13 0z m-609 -52 c0 -52 -6 -43
-13 18 -3 30 -1 43 4 35 5 -8 9 -32 9 -53z m285 50 c-31 -14 -64 -46 -83 -81
-11 -19 -11 -19 -12 3 0 49 46 91 100 91 24 0 24 0 -5 -13z m-3045 -16 c-32
-26 -117 -67 -155 -75 -17 -4 15 16 70 43 113 57 120 59 85 32z m3150 -75 c0
-16 -5 -37 -10 -45 -7 -11 -10 3 -10 45 0 42 3 56 10 45 5 -8 10 -28 10 -45z
m67 -22 c-3 -10 -5 -4 -5 12 0 17 2 24 5 18 2 -7 2 -21 0 -30z m4172 -45 c-12
-23 -38 -68 -57 -98 -20 -30 -59 -100 -89 -155 -29 -55 -53 -96 -53 -91 0 24
46 159 76 217 30 61 131 186 141 175 2 -2 -6 -24 -18 -48z m-9250 -24 c14 -36
21 -78 21 -125 0 -68 -2 -73 -35 -106 -20 -20 -38 -34 -40 -31 -3 3 4 26 16
53 23 53 28 171 9 235 -12 42 -12 43 -1 35 5 -3 19 -30 30 -61z m4290 -8 l26
-29 -27 19 c-25 18 -58 63 -58 80 0 5 7 -3 17 -16 9 -14 28 -38 42 -54z m648
29 c24 4 33 3 28 -4 -9 -16 -98 -13 -121 4 -17 13 -15 13 20 4 21 -6 54 -8 73
-4z m-4824 -31 c-15 -29 -18 -32 -24 -17 -5 12 0 24 13 36 29 24 30 22 11 -19z
m-1216 5 c15 -13 16 -28 3 -49 -8 -12 -15 -9 -45 20 -19 18 -35 38 -35 43 0
12 58 1 77 -14z m6683 12 c0 -6 -12 -23 -26 -38 l-25 -28 23 37 c24 40 28 44
28 29z m-6955 -28 c-18 -13 -35 -17 -35 -9 0 21 14 33 32 28 20 -5 20 -6 3
-19z m9722 -75 c-2 -18 -4 -6 -4 27 0 33 2 48 4 33 2 -15 2 -42 0 -60z m-8607
-2 c0 -16 -62 -106 -83 -121 -12 -8 -32 -15 -45 -15 -23 0 -23 1 13 41 41 46
65 95 65 136 l1 28 24 -30 c14 -16 25 -34 25 -39z m540 42 c0 -39 -14 -50 -61
-46 l-44 3 45 33 c52 38 60 39 60 10z m824 -8 c-12 -5 -43 -11 -70 -14 l-49
-5 55 13 c63 16 95 19 64 6z m-2322 -27 c12 -11 18 -29 17 -57 l-1 -41 -8 39
c-8 45 -35 69 -67 63 -12 -2 -20 0 -17 4 9 15 56 10 76 -8z m-262 4 c0 -2 -13
-13 -30 -25 -23 -17 -28 -18 -23 -6 12 32 -39 -7 -127 -95 -47 -47 -74 -70
-60 -51 46 65 144 156 180 167 36 11 60 15 60 10z m9741 -427 l-8 -75 -2 120
c0 66 2 179 7 250 l7 130 3 -175 c1 -96 -2 -209 -7 -250z m-9628 368 c-17 -18
-36 -44 -43 -57 -10 -19 -14 -21 -21 -10 -14 22 -12 26 37 64 58 44 67 45 27
3z m1278 -83 l18 -40 -32 -17 c-52 -28 -59 -23 -35 27 19 39 21 50 10 78 -11
30 -10 31 4 12 9 -11 24 -38 35 -60z m5904 -111 c-4 -44 -13 -68 -31 -90 -19
-21 -24 -23 -19 -9 4 11 17 64 28 118 23 104 34 94 22 -19z m-6920 -10 c-22
-97 -46 -174 -55 -174 -23 0 -26 71 -5 130 17 47 68 132 73 120 2 -4 -4 -39
-13 -76z m5238 -35 l62 -30 -75 6 c-104 8 -131 28 -143 108 l-6 39 50 -47 c27
-26 78 -60 112 -76z m4330 -114 c0 -82 -4 -163 -9 -179 -7 -19 -10 43 -10 195
-1 168 1 213 9 179 5 -25 10 -112 10 -195z m721 129 c-10 -21 -32 -79 -50
-129 -34 -93 -46 -97 -19 -7 19 64 74 187 80 180 3 -3 -2 -22 -11 -44z
m-10824 -44 c0 -19 -11 -26 -23 -14 -8 8 3 34 14 34 5 0 9 -9 9 -20z m207 -22
c-3 -8 -6 -5 -6 6 -1 11 2 17 5 13 3 -3 4 -12 1 -19z m11156 -213 l6 -120 -14
70 c-8 39 -14 113 -13 165 1 124 13 57 21 -115z m754 123 c-2 -18 -4 -6 -4 27
0 33 2 48 4 33 2 -15 2 -42 0 -60z m-4740 56 c-3 -3 -12 -4 -19 -1 -8 3 -5 6
6 6 11 1 17 -2 13 -5z m-40 -10 c-3 -3 -12 -4 -19 -1 -8 3 -5 6 6 6 11 1 17
-2 13 -5z m-1122 -41 c196 -7 211 -21 24 -22 -124 -1 -310 15 -356 30 -20 6
-1 8 62 4 50 -3 171 -8 270 -12z m-6225 -3 c0 -5 -5 -10 -11 -10 -5 0 -7 5 -4
10 3 6 8 10 11 10 2 0 4 -4 4 -10z m393 -20 c4 -15 0 -20 -14 -20 -21 0 -22 1
-13 24 8 22 21 20 27 -4z m-262 -32 c11 -21 11 -22 -4 -9 -10 7 -17 17 -17 22
0 15 9 10 21 -13z m7016 16 c-3 -3 -12 -4 -19 -1 -8 3 -5 6 6 6 11 1 17 -2 13
-5z m-6522 -134 c15 -16 16 -22 5 -35 -7 -9 -23 -21 -34 -27 -19 -10 -20 -10
-7 5 7 10 11 30 9 47 -5 35 2 38 27 10z m-447 -23 c9 -10 4 -12 -24 -9 -52 6
-100 -6 -133 -33 -22 -19 -30 -22 -34 -11 -9 23 21 54 56 59 72 9 125 7 135
-6z m675 -9 c-18 -5 -41 -19 -51 -33 -24 -30 -32 -31 -32 -7 0 21 77 62 100
54 9 -4 3 -9 -17 -14z m4126 -195 c-1 -190 -15 -232 -18 -53 -1 86 9 250 15
250 2 0 3 -89 3 -197z m-4059 136 c0 -9 -6 -21 -13 -27 -10 -8 -12 -2 -9 30 3
28 7 36 13 27 5 -8 9 -21 9 -30z m-683 -49 c-15 -21 -15 -21 -14 14 1 31 3 34
15 22 13 -12 12 -17 -1 -36z m627 -2 c-7 -11 -32 -10 -39 2 -3 6 4 9 19 8 13
-1 22 -6 20 -10z m-246 -43 c-6 -14 -13 -23 -15 -21 -5 5 15 46 22 46 3 0 -1
-11 -7 -25z m121 -47 c1 -16 -3 -28 -7 -28 -5 0 -9 21 -10 48 -1 35 1 42 8 27
5 -11 9 -32 9 -47z m-401 32 c-14 -22 -24 -19 -15 5 4 8 11 15 17 15 6 0 6 -7
-2 -20z m172 -54 l-1 -31 -14 25 c-19 33 -19 51 0 44 9 -4 15 -19 15 -38z
m10087 -8 c-7 -74 -23 -103 -66 -122 -20 -9 -52 -26 -71 -38 -28 -18 -24 -12
22 34 34 34 68 82 85 118 15 33 30 60 32 60 2 0 1 -24 -2 -52z m-10462 21 c16
-16 -20 -10 -41 7 -18 14 -18 15 6 8 14 -3 29 -10 35 -15z m11994 -73 c-9 -8
-10 -7 -5 7 3 10 7 26 7 35 1 9 4 6 6 -7 3 -13 -1 -28 -8 -35z m-11629 15 c0
-11 -26 -21 -53 -20 -19 1 -18 3 8 14 36 17 45 18 45 6z m201 -22 c-13 -11
-26 -17 -29 -15 -3 3 6 14 19 25 13 11 26 17 29 14 3 -2 -6 -13 -19 -24z
m9206 -11 c-3 -8 -6 -5 -6 6 -1 11 2 17 5 13 3 -3 4 -12 1 -19z m-23 -137 c-9
-60 -21 -108 -25 -106 -3 3 0 37 7 77 8 40 17 90 20 111 4 21 9 36 11 33 3 -3
-3 -54 -13 -115z m810 -115 c10 -41 -11 -31 -44 20 -44 70 -47 97 -13 143 l28
40 11 -89 c6 -48 14 -100 18 -114z m-5604 101 c8 -3 -5 -3 -30 0 -45 6 -70 18
-70 34 0 5 19 0 43 -10 23 -10 49 -21 57 -24z m5449 -63 l22 -47 -30 26 c-17
14 -45 28 -63 32 l-32 7 30 13 c44 20 48 18 73 -31z m881 -4 c0 -17 -5 -30
-12 -30 -7 0 -24 -3 -38 -7 l-25 -6 28 26 c15 14 27 31 27 37 0 5 5 10 10 10
6 0 10 -13 10 -30z m-1372 -8 c2 -7 -3 -12 -12 -12 -9 0 -16 7 -16 16 0 17 22
14 28 -4z m-281 -6 c-10 -8 -51 -19 -93 -25 -120 -18 -128 -11 -14 14 128 28
129 28 107 11z m2153 4 c0 -5 -8 -10 -17 -10 -15 0 -16 2 -3 10 19 12 20 12
20 0z m-6805 -24 c33 -8 50 -14 37 -15 -45 -2 -111 -23 -131 -42 -21 -20 -51
-26 -51 -10 0 13 65 81 76 81 5 -1 36 -7 69 -14z m6488 7 c-7 -2 -21 -2 -30 0
-10 3 -4 5 12 5 17 0 24 -2 18 -5z m-1003 -95 c0 -4 -4 -8 -9 -8 -5 0 -16 -3
-25 -6 -13 -5 -13 -1 -3 26 11 28 13 29 24 13 7 -9 13 -20 13 -25z m-660 -6
c-60 -20 -95 -26 -177 -26 -62 -1 -106 3 -113 10 -8 8 34 15 152 26 220 20
224 20 138 -10z m-4972 -24 c7 -7 32 -20 55 -30 23 -9 35 -17 27 -17 -33 -2
-90 -23 -124 -46 -43 -29 -45 -19 -11 53 25 54 33 60 53 40z m967 -42 c93 -12
101 -14 50 -14 -33 -1 -89 5 -125 12 -84 18 -62 18 75 2z m4315 -26 c-8 -5
-33 -9 -55 -8 l-40 1 45 7 c25 4 50 8 55 8 6 1 3 -3 -5 -8z m395 -26 c8 -48 2
-52 -35 -21 -16 14 -40 29 -51 32 -31 10 -5 25 42 25 34 0 37 -2 44 -36z
m-702 19 c-34 -2 -93 -2 -130 0 -37 2 -9 3 62 3 72 0 102 -1 68 -3z m-3620
-10 c-7 -2 -19 -2 -25 0 -7 3 -2 5 12 5 14 0 19 -2 13 -5z m80 -10 c-7 -2 -21
-2 -30 0 -10 3 -4 5 12 5 17 0 24 -2 18 -5z m1705 -30 c-21 -2 -57 -2 -80 0
-24 2 -7 4 37 4 44 0 63 -2 43 -4z m-180 -10 c-27 -2 -69 -2 -95 0 -27 2 -5 3
47 3 52 0 74 -1 48 -3z m-2043 -128 c66 -13 146 -27 178 -31 91 -11 83 -28 -9
-19 -82 7 -294 57 -323 76 -13 8 -11 9 9 5 14 -4 79 -17 145 -31z m-960 -75
c10 -11 15 -20 11 -20 -14 0 -46 21 -46 30 0 16 16 11 35 -10z m5708 -50 c-4
-4 -23 -12 -41 -18 l-33 -11 36 41 c19 23 36 46 37 52 0 6 3 -4 5 -23 3 -18 1
-37 -4 -41z m-2805 23 c-16 -2 -40 -2 -55 0 -16 2 -3 4 27 4 30 0 43 -2 28 -4z
m-265 -10 c-40 -2 -107 -2 -150 0 -43 1 -10 3 72 3 83 0 118 -2 78 -3z m2527
-83 c41 -10 -87 -3 -185 11 -46 6 -36 7 45 3 58 -3 121 -9 140 -14z m-5040
-12 c17 -5 10 -7 -24 -3 -27 3 -64 5 -83 5 -21 0 -32 4 -28 10 7 11 89 4 135
-12z m-116 -40 c18 -45 29 -139 19 -166 -7 -18 -12 -3 -21 65 -7 48 -16 98
-19 111 -8 33 6 27 21 -10z m5812 -32 l52 -63 -56 34 c-31 18 -81 41 -111 50
l-54 17 29 13 c62 26 85 18 140 -51z m-841 14 c23 0 35 -19 55 -88 l9 -33 -38
39 c-21 21 -62 51 -92 66 l-54 27 49 -5 c27 -3 59 -6 71 -6z m-3876 -26 c8 -8
-105 -3 -144 6 -28 6 -14 7 50 3 50 -3 92 -7 94 -9z m4109 -26 c38 -23 56 -59
66 -128 l7 -45 -36 65 c-19 36 -47 76 -60 90 -22 21 -28 23 -45 12 -11 -7 -20
-8 -20 -3 0 5 -3 17 -7 27 -5 15 -2 16 27 11 18 -4 48 -17 68 -29z m-2440 15
c-43 -2 -113 -2 -155 0 -43 1 -8 3 77 3 85 0 120 -2 78 -3z m1352 -8 c-78 -14
-216 -28 -190 -20 29 10 196 33 230 33 20 0 2 -6 -40 -13z m1281 -17 c-11 -18
-22 -49 -27 -68 l-7 -35 -14 59 c-15 66 -10 76 39 76 l27 0 -18 -32z m-95
-555 c-2 -3 -11 -3 -19 -1 -12 2 -11 8 2 38 l15 35 4 -33 c2 -19 1 -36 -2 -39z
m-5338 -1 c-26 -5 -30 1 -22 32 l6 27 18 -28 c16 -27 16 -28 -2 -31z m5232 6
c0 -5 -4 -8 -10 -8 -5 0 -10 10 -10 23 0 18 2 19 10 7 5 -8 10 -18 10 -22z
m232 12 l33 -20 -31 0 c-23 0 -33 5 -37 20 -6 25 -5 25 35 0z"/>
</g>
</svg>
