<?xml version="1.0" encoding="UTF-8"?>
<svg xmlns="http://www.w3.org/2000/svg" xmlns:xlink="http://www.w3.org/1999/xlink" width="52px" height="52px" viewBox="0 0 52 52" version="1.1">
<g id="surface1">
<path style=" stroke:none;fill-rule:nonzero;fill:rgb(0%,67.45098%,84.313725%);fill-opacity:1;" d="M 8.25 23.367188 C 8.167969 23.367188 8.148438 23.320312 8.1875 23.25 L 8.617188 22.625 C 8.65625 22.554688 8.757812 22.511719 8.839844 22.511719 L 16.121094 22.511719 C 16.203125 22.511719 16.222656 22.578125 16.179688 22.648438 L 15.835938 23.25 C 15.792969 23.320312 15.691406 23.386719 15.628906 23.386719 Z M 8.25 23.367188 "/>
<path style=" stroke:none;fill-rule:nonzero;fill:rgb(0%,67.45098%,84.313725%);fill-opacity:1;" d="M 5.167969 25.492188 C 5.085938 25.492188 5.066406 25.445312 5.109375 25.375 L 5.535156 24.753906 C 5.578125 24.683594 5.679688 24.636719 5.761719 24.636719 L 15.058594 24.636719 C 15.140625 24.636719 15.183594 24.707031 15.160156 24.773438 L 15 25.328125 C 14.976562 25.421875 14.894531 25.46875 14.816406 25.46875 Z M 5.167969 25.492188 "/>
<path style=" stroke:none;fill-rule:nonzero;fill:rgb(0%,67.45098%,84.313725%);fill-opacity:1;" d="M 10.105469 27.617188 C 10.023438 27.617188 10.003906 27.546875 10.042969 27.480469 L 10.328125 26.902344 C 10.371094 26.832031 10.449219 26.761719 10.53125 26.761719 L 14.609375 26.761719 C 14.691406 26.761719 14.734375 26.832031 14.734375 26.925781 L 14.691406 27.480469 C 14.691406 27.570312 14.609375 27.640625 14.550781 27.640625 Z M 10.105469 27.617188 "/>
<path style=" stroke:none;fill-rule:nonzero;fill:rgb(0%,67.45098%,84.313725%);fill-opacity:1;" d="M 31.269531 22.949219 C 29.988281 23.320312 29.109375 23.597656 27.84375 23.964844 C 27.539062 24.058594 27.519531 24.082031 27.253906 23.734375 C 26.949219 23.34375 26.722656 23.089844 26.296875 22.855469 C 25.011719 22.140625 23.765625 22.347656 22.605469 23.203125 C 21.21875 24.21875 20.503906 25.722656 20.523438 27.59375 C 20.546875 29.445312 21.667969 30.96875 23.277344 31.222656 C 24.664062 31.429688 25.828125 30.875 26.746094 29.699219 C 26.929688 29.445312 27.089844 29.167969 27.292969 28.84375 C 26.5625 28.84375 25.644531 28.84375 23.359375 28.84375 C 22.929688 28.84375 22.828125 28.542969 22.972656 28.148438 C 23.238281 27.433594 23.726562 26.230469 24.011719 25.628906 C 24.074219 25.492188 24.214844 25.261719 24.523438 25.261719 C 25.5625 25.261719 29.394531 25.261719 31.945312 25.261719 C 31.902344 25.882812 31.902344 26.507812 31.820312 27.132812 C 31.597656 28.796875 31.046875 30.320312 30.148438 31.664062 C 28.679688 33.859375 26.765625 35.222656 24.339844 35.589844 C 22.339844 35.890625 20.484375 35.453125 18.851562 34.066406 C 17.34375 32.773438 16.488281 31.0625 16.261719 28.933594 C 15.996094 26.414062 16.648438 24.152344 17.996094 22.164062 C 19.445312 20.015625 21.359375 18.652344 23.707031 18.164062 C 25.621094 17.773438 27.457031 18.027344 29.109375 19.296875 C 30.191406 20.105469 30.964844 21.214844 31.476562 22.554688 C 31.597656 22.765625 31.515625 22.878906 31.269531 22.949219 Z M 31.269531 22.949219 "/>
<path style=" stroke:none;fill-rule:nonzero;fill:rgb(0%,67.45098%,84.313725%);fill-opacity:1;" d="M 38.019531 35.730469 C 36.164062 35.683594 34.472656 35.082031 33.046875 33.695312 C 31.84375 32.515625 31.085938 31.015625 30.84375 29.234375 C 30.476562 26.625 31.109375 24.3125 32.496094 22.257812 C 33.984375 20.039062 35.777344 18.882812 38.203125 18.394531 C 40.285156 17.980469 42.242188 18.210938 44.015625 19.574219 C 45.628906 20.824219 46.625 22.511719 46.890625 24.730469 C 47.238281 27.847656 46.441406 30.390625 44.546875 32.5625 C 43.199219 34.113281 41.550781 35.082031 39.652344 35.523438 C 39.101562 35.636719 38.550781 35.660156 38.019531 35.730469 Z M 42.875 26.394531 C 42.855469 26.09375 42.855469 25.863281 42.8125 25.628906 C 42.445312 23.34375 40.589844 22.046875 38.652344 22.554688 C 36.757812 23.042969 35.535156 24.40625 35.085938 26.578125 C 34.71875 28.378906 35.492188 30.207031 36.960938 30.945312 C 38.082031 31.5 39.203125 31.429688 40.285156 30.808594 C 41.894531 29.859375 42.773438 28.378906 42.875 26.394531 Z M 42.875 26.394531 "/>
</g>
</svg>
