<?xml version="1.0" encoding="UTF-8"?>
<svg xmlns="http://www.w3.org/2000/svg" xmlns:xlink="http://www.w3.org/1999/xlink" width="64px" height="24px" viewBox="0 0 64 24" version="1.1">
<g id="surface1">
<path style=" stroke:none;fill-rule:evenodd;fill:rgb(100%,100%,100%);fill-opacity:1;" d="M 5.007812 7.414062 C 4.886719 7.414062 4.855469 7.355469 4.914062 7.261719 L 5.566406 6.429688 C 5.628906 6.339844 5.78125 6.277344 5.90625 6.277344 L 16.941406 6.277344 C 17.066406 6.277344 17.097656 6.371094 17.035156 6.460938 L 16.511719 7.261719 C 16.449219 7.355469 16.292969 7.445312 16.199219 7.445312 Z M 5.007812 7.414062 "/>
<path style=" stroke:none;fill-rule:evenodd;fill:rgb(100%,100%,100%);fill-opacity:1;" d="M 0.339844 10.246094 C 0.214844 10.246094 0.183594 10.183594 0.246094 10.09375 L 0.898438 9.261719 C 0.957031 9.167969 1.113281 9.109375 1.238281 9.109375 L 15.335938 9.109375 C 15.457031 9.109375 15.519531 9.199219 15.488281 9.292969 L 15.242188 10.03125 C 15.210938 10.152344 15.089844 10.214844 14.964844 10.214844 Z M 0.339844 10.246094 "/>
<path style=" stroke:none;fill-rule:evenodd;fill:rgb(100%,100%,100%);fill-opacity:1;" d="M 7.820312 13.078125 C 7.699219 13.078125 7.667969 12.984375 7.730469 12.890625 L 8.164062 12.125 C 8.222656 12.03125 8.347656 11.9375 8.472656 11.9375 L 14.65625 11.9375 C 14.777344 11.9375 14.839844 12.03125 14.839844 12.152344 L 14.777344 12.890625 C 14.777344 13.015625 14.65625 13.109375 14.5625 13.109375 Z M 7.820312 13.078125 "/>
<path style=" stroke:none;fill-rule:evenodd;fill:rgb(100%,100%,100%);fill-opacity:1;" d="M 39.914062 6.863281 C 37.96875 7.355469 36.636719 7.722656 34.722656 8.214844 C 34.257812 8.339844 34.226562 8.371094 33.824219 7.90625 C 33.359375 7.382812 33.019531 7.046875 32.371094 6.738281 C 30.421875 5.785156 28.539062 6.0625 26.773438 7.199219 C 24.671875 8.554688 23.589844 10.554688 23.621094 13.046875 C 23.652344 15.507812 25.351562 17.539062 27.796875 17.875 C 29.898438 18.152344 31.660156 17.414062 33.050781 15.847656 C 33.328125 15.507812 33.578125 15.136719 33.886719 14.707031 C 32.773438 14.707031 31.382812 14.707031 27.917969 14.707031 C 27.269531 14.707031 27.113281 14.308594 27.332031 13.785156 C 27.734375 12.832031 28.476562 11.230469 28.910156 10.429688 C 29 10.246094 29.21875 9.9375 29.679688 9.9375 L 40.933594 9.9375 C 40.875 10.769531 40.875 11.601562 40.75 12.429688 C 40.410156 14.644531 39.574219 16.675781 38.214844 18.460938 C 35.988281 21.382812 33.082031 23.199219 29.402344 23.691406 C 26.371094 24.09375 23.558594 23.507812 21.085938 21.660156 C 18.796875 19.9375 17.5 17.660156 17.160156 14.832031 C 16.757812 11.476562 17.746094 8.460938 19.789062 5.816406 C 21.984375 2.953125 24.890625 1.136719 28.445312 0.492188 C 31.351562 -0.03125 34.132812 0.308594 36.636719 2 C 38.277344 3.078125 39.453125 4.554688 40.222656 6.339844 C 40.410156 6.617188 40.285156 6.769531 39.914062 6.863281 Z M 39.914062 6.863281 "/>
<path style=" stroke:none;fill-rule:nonzero;fill:rgb(100%,100%,100%);fill-opacity:1;" d="M 50.148438 23.875 C 47.335938 23.816406 44.769531 23.015625 42.605469 21.167969 C 40.78125 19.601562 39.636719 17.601562 39.265625 15.230469 C 38.710938 11.753906 39.667969 8.675781 41.769531 5.9375 C 44.027344 2.984375 46.746094 1.445312 50.425781 0.800781 C 53.582031 0.246094 56.546875 0.554688 59.238281 2.371094 C 61.679688 4.03125 63.195312 6.277344 63.597656 9.230469 C 64.125 13.382812 62.917969 16.769531 60.042969 19.660156 C 58 21.722656 55.496094 23.015625 52.621094 23.601562 C 51.789062 23.753906 50.953125 23.785156 50.148438 23.875 Z M 57.507812 11.445312 C 57.476562 11.046875 57.476562 10.738281 57.414062 10.429688 C 56.859375 7.382812 54.042969 5.660156 51.105469 6.339844 C 48.230469 6.984375 46.375 8.800781 45.695312 11.691406 C 45.140625 14.09375 46.316406 16.523438 48.542969 17.507812 C 50.242188 18.246094 51.941406 18.152344 53.582031 17.324219 C 56.023438 16.0625 57.351562 14.09375 57.507812 11.445312 Z M 57.507812 11.445312 "/>
</g>
</svg>
