<?xml version="1.0" encoding="UTF-8"?>
<svg xmlns="http://www.w3.org/2000/svg" xmlns:xlink="http://www.w3.org/1999/xlink" width="24px" height="24px" viewBox="0 0 24 24" version="1.1">
<g id="surface1">
<path style=" stroke:none;fill-rule:nonzero;fill:rgb(0%,67.450982%,84.313726%);fill-opacity:1;" d="M 3.808594 10.785156 C 3.769531 10.785156 3.761719 10.761719 3.777344 10.730469 L 3.976562 10.441406 C 3.996094 10.410156 4.042969 10.390625 4.078125 10.390625 L 7.441406 10.390625 C 7.476562 10.390625 7.488281 10.421875 7.46875 10.453125 L 7.308594 10.730469 C 7.289062 10.761719 7.242188 10.792969 7.214844 10.792969 Z M 3.808594 10.785156 "/>
<path style=" stroke:none;fill-rule:nonzero;fill:rgb(0%,67.450982%,84.313726%);fill-opacity:1;" d="M 2.386719 11.765625 C 2.347656 11.765625 2.339844 11.742188 2.359375 11.710938 L 2.554688 11.425781 C 2.574219 11.390625 2.621094 11.371094 2.660156 11.371094 L 6.949219 11.371094 C 6.988281 11.371094 7.007812 11.402344 6.996094 11.433594 L 6.921875 11.691406 C 6.914062 11.734375 6.875 11.753906 6.839844 11.753906 Z M 2.386719 11.765625 "/>
<path style=" stroke:none;fill-rule:nonzero;fill:rgb(0%,67.450982%,84.313726%);fill-opacity:1;" d="M 4.664062 12.746094 C 4.625 12.746094 4.617188 12.714844 4.636719 12.683594 L 4.765625 12.417969 C 4.785156 12.382812 4.824219 12.351562 4.859375 12.351562 L 6.742188 12.351562 C 6.78125 12.351562 6.800781 12.382812 6.800781 12.425781 L 6.78125 12.683594 C 6.78125 12.726562 6.742188 12.757812 6.714844 12.757812 Z M 4.664062 12.746094 "/>
<path style=" stroke:none;fill-rule:nonzero;fill:rgb(0%,67.450982%,84.313726%);fill-opacity:1;" d="M 14.433594 10.59375 C 13.839844 10.761719 13.433594 10.890625 12.851562 11.0625 C 12.710938 11.105469 12.703125 11.113281 12.578125 10.953125 C 12.4375 10.773438 12.332031 10.65625 12.136719 10.546875 C 11.542969 10.21875 10.96875 10.3125 10.433594 10.710938 C 9.792969 11.179688 9.464844 11.871094 9.472656 12.734375 C 9.484375 13.589844 10 14.292969 10.742188 14.410156 C 11.382812 14.507812 11.921875 14.25 12.34375 13.707031 C 12.429688 13.589844 12.503906 13.460938 12.597656 13.3125 C 12.257812 13.3125 11.835938 13.3125 10.78125 13.3125 C 10.582031 13.3125 10.535156 13.171875 10.601562 12.992188 C 10.726562 12.660156 10.949219 12.105469 11.082031 11.828125 C 11.109375 11.765625 11.175781 11.660156 11.320312 11.660156 C 11.796875 11.660156 13.566406 11.660156 14.742188 11.660156 C 14.722656 11.945312 14.722656 12.234375 14.6875 12.523438 C 14.582031 13.289062 14.328125 13.992188 13.914062 14.613281 C 13.238281 15.628906 12.351562 16.257812 11.234375 16.425781 C 10.3125 16.566406 9.453125 16.363281 8.699219 15.722656 C 8.003906 15.125 7.609375 14.335938 7.503906 13.355469 C 7.382812 12.191406 7.683594 11.148438 8.304688 10.230469 C 8.976562 9.238281 9.859375 8.609375 10.941406 8.382812 C 11.824219 8.203125 12.671875 8.320312 13.433594 8.90625 C 13.933594 9.28125 14.292969 9.792969 14.527344 10.410156 C 14.582031 10.507812 14.546875 10.558594 14.433594 10.59375 Z M 14.433594 10.59375 "/>
<path style=" stroke:none;fill-rule:nonzero;fill:rgb(0%,67.450982%,84.313726%);fill-opacity:1;" d="M 17.546875 16.492188 C 16.691406 16.46875 15.910156 16.191406 15.253906 15.550781 C 14.695312 15.007812 14.347656 14.316406 14.234375 13.492188 C 14.066406 12.289062 14.359375 11.222656 15 10.273438 C 15.683594 9.25 16.511719 8.714844 17.632812 8.488281 C 18.59375 8.296875 19.496094 8.40625 20.316406 9.035156 C 21.058594 9.609375 21.519531 10.390625 21.640625 11.414062 C 21.800781 12.851562 21.433594 14.027344 20.558594 15.027344 C 19.9375 15.746094 19.175781 16.191406 18.300781 16.394531 C 18.046875 16.449219 17.792969 16.457031 17.546875 16.492188 Z M 19.789062 12.183594 C 19.78125 12.042969 19.78125 11.9375 19.757812 11.828125 C 19.589844 10.773438 18.734375 10.175781 17.839844 10.410156 C 16.964844 10.636719 16.402344 11.265625 16.195312 12.265625 C 16.023438 13.097656 16.382812 13.941406 17.058594 14.28125 C 17.578125 14.539062 18.09375 14.507812 18.59375 14.21875 C 19.335938 13.78125 19.742188 13.097656 19.789062 12.183594 Z M 19.789062 12.183594 "/>
</g>
</svg>
