<?xml version="1.0" encoding="UTF-8"?>
<svg xmlns="http://www.w3.org/2000/svg" xmlns:xlink="http://www.w3.org/1999/xlink" width="52px" height="52px" viewBox="0 0 52 52" version="1.1">
<g id="surface1">
<path style=" stroke:none;fill-rule:nonzero;fill:rgb(20%,20%,20%);fill-opacity:1;" d="M 15.550781 12.058594 L 23.210938 12.058594 L 22.835938 17.933594 L 17.890625 17.933594 L 17.519531 24.070312 L 21.976562 24.070312 L 21.605469 29.964844 L 17.144531 29.964844 L 16.398438 41.988281 L 13.6875 41.988281 Z M 15.550781 12.058594 "/>
<path style=" stroke:none;fill-rule:nonzero;fill:rgb(20%,20%,20%);fill-opacity:1;" d="M 23.335938 19.542969 L 26.015625 19.542969 L 24.613281 41.984375 L 21.933594 41.984375 Z M 23.660156 13.492188 C 23.769531 11.613281 24.464844 10.089844 25.21875 10.089844 C 25.972656 10.089844 26.511719 11.613281 26.417969 13.492188 C 26.324219 15.375 25.621094 16.914062 24.867188 16.914062 C 24.109375 16.914062 23.558594 15.363281 23.660156 13.492188 Z M 23.660156 13.492188 "/>
<path style=" stroke:none;fill-rule:nonzero;fill:rgb(20%,20%,20%);fill-opacity:1;" d="M 27.40625 12.058594 L 30.082031 12.058594 L 29.386719 23.382812 L 29.445312 23.382812 C 29.882812 21.324219 30.753906 19.25 32.085938 19.25 C 33.84375 19.25 35.207031 22.859375 34.710938 30.777344 C 34.238281 38.417969 32.484375 42.304688 30.621094 42.304688 C 29.351562 42.304688 28.714844 40.417969 28.519531 38.34375 L 28.414062 38.34375 L 28.195312 41.984375 L 25.546875 41.984375 Z M 30.050781 36.746094 C 31.035156 36.746094 31.742188 34.394531 31.957031 30.773438 C 32.171875 27.148438 31.78125 24.839844 30.789062 24.839844 C 29.804688 24.839844 29.089844 27.105469 28.871094 30.773438 C 28.648438 34.398438 29.070312 36.746094 30.050781 36.746094 Z M 30.050781 36.746094 "/>
<path style=" stroke:none;fill-rule:nonzero;fill:rgb(20%,20%,20%);fill-opacity:1;" d="M 35.019531 30.851562 C 35.453125 23.898438 37.382812 19.253906 39.917969 19.253906 C 42.308594 19.253906 43.734375 23.328125 43.273438 30.707031 L 43.167969 32.488281 L 37.5625 32.488281 L 37.546875 32.753906 C 37.375 35.601562 37.878906 37.257812 38.925781 37.257812 C 39.625 37.257812 40.226562 36.472656 40.53125 34.964844 L 42.976562 35.15625 C 42.378906 39.570312 40.773438 42.417969 38.554688 42.417969 C 35.914062 42.40625 34.566406 38.023438 35.019531 30.851562 Z M 40.925781 28.339844 C 41.0625 26.046875 40.550781 24.410156 39.671875 24.410156 C 38.808594 24.410156 38.039062 26.121094 37.847656 28.339844 Z M 40.925781 28.339844 "/>
<path style=" stroke:none;fill-rule:nonzero;fill:rgb(20%,20%,20%);fill-opacity:1;" d="M 44.578125 19.542969 L 47.175781 19.542969 L 46.917969 23.632812 L 47.003906 23.632812 C 47.503906 20.667969 48.332031 19.238281 49.25 19.238281 C 49.496094 19.246094 49.746094 19.324219 49.984375 19.484375 L 49.589844 25.707031 C 49.34375 25.460938 48.890625 25.328125 48.554688 25.328125 C 47.605469 25.328125 46.785156 27.125 46.609375 29.796875 L 45.855469 41.984375 L 43.175781 41.984375 Z M 44.578125 19.542969 "/>
<path style=" stroke:none;fill-rule:nonzero;fill:rgb(0%,67.45098%,84.313725%);fill-opacity:1;" d="M 13.894531 20.003906 L 5.152344 20.003906 L 4.453125 22.652344 L 13.734375 22.636719 Z M 13.894531 20.003906 "/>
<path style=" stroke:none;fill-rule:nonzero;fill:rgb(0%,67.45098%,84.313725%);fill-opacity:1;" d="M 13.585938 25.492188 L 2.273438 25.492188 L 1.550781 28.125 L 13.425781 28.105469 Z M 13.585938 25.492188 "/>
<path style=" stroke:none;fill-rule:nonzero;fill:rgb(0%,67.45098%,84.313725%);fill-opacity:1;" d="M 13.277344 30.976562 L 8.445312 30.976562 L 7.792969 33.621094 L 13.117188 33.609375 Z M 13.277344 30.976562 "/>
</g>
</svg>
