<?xml version="1.0" encoding="UTF-8"?>
<svg xmlns="http://www.w3.org/2000/svg" xmlns:xlink="http://www.w3.org/1999/xlink" width="24px" height="24px" viewBox="0 0 24 24" version="1.1">
<g id="surface1">
<path style=" stroke:none;fill-rule:nonzero;fill:rgb(20%,20%,20%);fill-opacity:1;" d="M 7.175781 5.566406 L 10.710938 5.566406 L 10.539062 8.277344 L 8.257812 8.277344 L 8.085938 11.109375 L 10.144531 11.109375 L 9.972656 13.828125 L 7.914062 13.828125 L 7.570312 19.378906 L 6.316406 19.378906 Z M 7.175781 5.566406 "/>
<path style=" stroke:none;fill-rule:nonzero;fill:rgb(20%,20%,20%);fill-opacity:1;" d="M 10.769531 9.019531 L 12.007812 9.019531 L 11.359375 19.378906 L 10.125 19.378906 Z M 10.921875 6.226562 C 10.96875 5.359375 11.292969 4.65625 11.640625 4.65625 C 11.988281 4.65625 12.234375 5.359375 12.191406 6.226562 C 12.148438 7.097656 11.824219 7.804688 11.476562 7.804688 C 11.128906 7.804688 10.875 7.089844 10.921875 6.226562 Z M 10.921875 6.226562 "/>
<path style=" stroke:none;fill-rule:nonzero;fill:rgb(20%,20%,20%);fill-opacity:1;" d="M 12.648438 5.566406 L 13.882812 5.566406 L 13.5625 10.792969 L 13.589844 10.792969 C 13.792969 9.84375 14.195312 8.882812 14.808594 8.882812 C 15.621094 8.882812 16.25 10.550781 16.019531 14.203125 C 15.800781 17.730469 14.992188 19.523438 14.132812 19.523438 C 13.546875 19.523438 13.253906 18.65625 13.164062 17.695312 L 13.113281 17.695312 L 13.011719 19.378906 L 11.789062 19.378906 Z M 13.871094 16.960938 C 14.324219 16.960938 14.648438 15.875 14.75 14.203125 C 14.847656 12.53125 14.667969 11.464844 14.210938 11.464844 C 13.757812 11.464844 13.425781 12.511719 13.324219 14.203125 C 13.222656 15.875 13.417969 16.960938 13.871094 16.960938 Z M 13.871094 16.960938 "/>
<path style=" stroke:none;fill-rule:nonzero;fill:rgb(20%,20%,20%);fill-opacity:1;" d="M 16.164062 14.238281 C 16.363281 11.03125 17.253906 8.886719 18.421875 8.886719 C 19.527344 8.886719 20.183594 10.765625 19.972656 14.171875 L 19.921875 14.996094 L 17.335938 14.996094 L 17.328125 15.117188 C 17.25 16.429688 17.484375 17.195312 17.964844 17.195312 C 18.289062 17.195312 18.566406 16.832031 18.707031 16.136719 L 19.835938 16.226562 C 19.558594 18.261719 18.820312 19.578125 17.792969 19.578125 C 16.574219 19.570312 15.953125 17.550781 16.164062 14.238281 Z M 18.890625 13.078125 C 18.953125 12.023438 18.714844 11.265625 18.308594 11.265625 C 17.910156 11.265625 17.554688 12.054688 17.46875 13.078125 Z M 18.890625 13.078125 "/>
<path style=" stroke:none;fill-rule:nonzero;fill:rgb(20%,20%,20%);fill-opacity:1;" d="M 20.574219 9.019531 L 21.773438 9.019531 L 21.65625 10.90625 L 21.695312 10.90625 C 21.925781 9.539062 22.308594 8.878906 22.730469 8.878906 C 22.84375 8.882812 22.960938 8.917969 23.070312 8.992188 L 22.886719 11.863281 C 22.773438 11.75 22.566406 11.691406 22.410156 11.691406 C 21.972656 11.691406 21.59375 12.519531 21.511719 13.753906 L 21.164062 19.378906 L 19.925781 19.378906 Z M 20.574219 9.019531 "/>
<path style=" stroke:none;fill-rule:nonzero;fill:rgb(0%,67.450982%,84.313726%);fill-opacity:1;" d="M 6.414062 9.234375 L 2.378906 9.234375 L 2.054688 10.453125 L 6.339844 10.449219 Z M 6.414062 9.234375 "/>
<path style=" stroke:none;fill-rule:nonzero;fill:rgb(0%,67.450982%,84.313726%);fill-opacity:1;" d="M 6.269531 11.765625 L 1.050781 11.765625 L 0.714844 12.980469 L 6.195312 12.972656 Z M 6.269531 11.765625 "/>
<path style=" stroke:none;fill-rule:nonzero;fill:rgb(0%,67.450982%,84.313726%);fill-opacity:1;" d="M 6.128906 14.296875 L 3.898438 14.296875 L 3.597656 15.515625 L 6.054688 15.511719 Z M 6.128906 14.296875 "/>
</g>
</svg>
