<?xml version="1.0" encoding="UTF-8"?>
<svg xmlns="http://www.w3.org/2000/svg" xmlns:xlink="http://www.w3.org/1999/xlink" width="24px" height="24px" viewBox="0 0 24 24" version="1.1">
<g id="surface1">
<path style=" stroke:none;fill-rule:nonzero;fill:rgb(0%,0%,0%);fill-opacity:1;" d="M 12 1.144531 C 6.015625 1.144531 1.144531 6.015625 1.144531 12 C 1.144531 17.984375 6.015625 22.855469 12 22.855469 C 17.984375 22.855469 22.855469 17.984375 22.855469 12 C 22.855469 6.015625 17.984375 1.144531 12 1.144531 Z M 11.984375 2.109375 C 12.371094 2.117188 12.675781 2.433594 12.675781 2.824219 C 12.675781 3.21875 12.359375 3.535156 11.964844 3.535156 C 11.570312 3.535156 11.25 3.21875 11.25 2.824219 C 11.25 2.628906 11.328125 2.445312 11.464844 2.308594 C 11.605469 2.175781 11.789062 2.101562 11.984375 2.109375 Z M 13.617188 3.285156 C 16.15625 3.757812 18.359375 5.328125 19.636719 7.570312 L 18.792969 9.472656 C 18.648438 9.800781 18.796875 10.1875 19.125 10.332031 L 20.746094 11.050781 C 20.796875 11.558594 20.800781 12.070312 20.765625 12.578125 L 19.863281 12.578125 C 19.773438 12.578125 19.734375 12.636719 19.734375 12.722656 L 19.734375 13.136719 C 19.734375 14.109375 19.1875 14.324219 18.703125 14.378906 C 18.246094 14.429688 17.738281 14.183594 17.671875 13.902344 C 17.402344 12.382812 16.953125 12.058594 16.238281 11.496094 C 17.125 10.933594 18.042969 10.105469 18.042969 9 C 18.042969 7.800781 17.222656 7.046875 16.664062 6.679688 C 15.878906 6.160156 15.011719 6.058594 14.777344 6.058594 L 5.453125 6.058594 C 6.742188 4.617188 8.46875 3.644531 10.371094 3.285156 L 11.46875 4.4375 C 11.71875 4.695312 12.128906 4.707031 12.386719 4.457031 Z M 3.46875 8.570312 C 3.855469 8.582031 4.160156 8.898438 4.160156 9.285156 C 4.160156 9.679688 3.839844 10 3.449219 10 C 3.054688 10 2.734375 9.679688 2.734375 9.285156 C 2.734375 9.09375 2.8125 8.90625 2.949219 8.773438 C 3.089844 8.636719 3.273438 8.566406 3.46875 8.570312 Z M 20.496094 8.601562 C 20.882812 8.613281 21.191406 8.929688 21.191406 9.316406 C 21.191406 9.710938 20.871094 10.03125 20.476562 10.03125 C 20.082031 10.03125 19.761719 9.710938 19.761719 9.316406 C 19.761719 9.125 19.839844 8.941406 19.980469 8.804688 C 20.117188 8.671875 20.304688 8.597656 20.496094 8.601562 Z M 4.8125 8.71875 L 6.058594 8.71875 L 6.058594 14.332031 L 3.546875 14.332031 C 3.234375 13.242188 3.140625 12.101562 3.261719 10.976562 L 4.800781 10.292969 C 5.128906 10.144531 5.277344 9.761719 5.128906 9.433594 Z M 10.007812 8.777344 L 12.972656 8.777344 C 13.128906 8.777344 14.054688 8.953125 14.054688 9.652344 C 14.054688 10.226562 13.34375 10.433594 12.757812 10.433594 L 10.007812 10.433594 Z M 10.007812 12.8125 L 12.28125 12.8125 C 12.488281 12.8125 13.390625 12.871094 13.675781 14.023438 C 13.765625 14.378906 13.964844 15.53125 14.101562 15.898438 C 14.238281 16.3125 14.785156 17.140625 15.371094 17.140625 L 19.078125 17.140625 C 18.828125 17.472656 18.558594 17.789062 18.265625 18.082031 L 16.757812 17.757812 C 16.40625 17.683594 16.058594 17.90625 15.980469 18.257812 L 15.625 19.929688 C 13.292969 20.988281 10.617188 20.972656 8.296875 19.894531 L 7.9375 18.222656 C 7.863281 17.871094 7.515625 17.648438 7.164062 17.722656 L 5.6875 18.039062 C 5.414062 17.757812 5.160156 17.457031 4.925781 17.140625 L 12.109375 17.140625 C 12.1875 17.140625 12.242188 17.125 12.242188 17.050781 L 12.242188 14.511719 C 12.242188 14.4375 12.1875 14.421875 12.109375 14.421875 L 10.007812 14.421875 Z M 6.695312 18.628906 C 7.082031 18.640625 7.386719 18.957031 7.386719 19.34375 C 7.386719 19.738281 7.070312 20.058594 6.675781 20.058594 C 6.28125 20.058594 5.960938 19.738281 5.960938 19.34375 C 5.960938 19.148438 6.039062 18.964844 6.175781 18.828125 C 6.316406 18.695312 6.5 18.621094 6.695312 18.628906 Z M 17.269531 18.660156 C 17.65625 18.671875 17.964844 18.988281 17.964844 19.375 C 17.964844 19.769531 17.644531 20.089844 17.25 20.089844 C 16.855469 20.089844 16.535156 19.769531 16.535156 19.375 C 16.535156 19.179688 16.613281 18.996094 16.753906 18.863281 C 16.890625 18.726562 17.078125 18.65625 17.269531 18.660156 Z M 17.269531 18.660156 "/>
<path style="fill-rule:evenodd;fill:rgb(0%,0%,0%);fill-opacity:1;stroke-width:3;stroke-linecap:round;stroke-linejoin:round;stroke:rgb(0%,0%,0%);stroke-opacity:1;stroke-miterlimit:4;" d="M 115.680208 70.950001 C 115.680208 95.595264 95.695263 115.580209 71.049999 115.580209 C 46.404736 115.580209 26.419791 95.595264 26.419791 70.950001 C 26.419791 46.304737 46.404736 26.319792 71.049999 26.319792 C 95.695263 26.319792 115.680208 46.304737 115.680208 70.950001 Z M 114.846793 66.646859 L 121.803254 70.950001 L 114.846793 75.253142 L 120.816764 80.848927 L 113.162955 83.723357 L 117.942333 90.373666 L 109.846305 91.683318 L 113.247997 99.150033 L 105.066926 98.860889 L 106.937857 106.837859 L 98.960888 104.966928 L 99.250032 113.147999 L 91.783316 109.746306 L 90.473665 117.842335 L 83.823355 113.062956 L 80.948925 120.716765 L 75.353141 114.746794 L 71.049999 121.703256 L 66.746858 114.746794 L 61.151073 120.716765 L 58.276643 113.062956 L 51.626334 117.842335 L 50.316682 109.746306 L 42.849967 113.147999 L 43.139111 104.966928 L 35.162141 106.837859 L 37.033072 98.860889 L 28.852001 99.150033 L 32.253694 91.683318 L 24.157665 90.373666 L 28.937044 83.723357 L 21.283235 80.848927 L 27.253206 75.253142 L 20.296744 70.950001 L 27.253206 66.646859 L 21.283235 61.051075 L 28.937044 58.176645 L 24.157665 51.526335 L 32.253694 50.216684 L 28.852001 42.749968 L 37.033072 43.039112 L 35.162141 35.062143 L 43.139111 36.933074 L 42.849967 28.752003 L 50.316682 32.153695 L 51.626334 24.057667 L 58.276643 28.837045 L 61.151073 21.183236 L 66.746858 27.153207 L 71.049999 20.196746 L 75.353141 27.153207 L 80.948925 21.183236 L 83.823355 28.837045 L 90.473665 24.057667 L 91.783316 32.153695 L 99.250032 28.752003 L 98.960888 36.933074 L 106.937857 35.062143 L 105.066926 43.039112 L 113.247997 42.749968 L 109.846305 50.216684 L 117.942333 51.526335 L 113.162955 58.176645 L 120.816764 61.051075 Z M 114.846793 66.646859 " transform="matrix(0.229665,0,0,0.229665,-4.317703,-4.294737)"/>
</g>
</svg>
