<?xml version="1.0" encoding="UTF-8"?>
<svg xmlns="http://www.w3.org/2000/svg" xmlns:xlink="http://www.w3.org/1999/xlink" width="48px" height="48px" viewBox="0 0 48 48" version="1.1">
<g id="surface1">
<path style=" stroke:none;fill-rule:nonzero;fill:rgb(0%,0%,0%);fill-opacity:1;" d="M 24 2.289062 C 12.03125 2.289062 2.289062 12.035156 2.289062 24 C 2.289062 35.964844 12.035156 45.710938 24 45.710938 C 35.964844 45.710938 45.710938 35.964844 45.710938 24 C 45.710938 12.035156 35.964844 2.289062 24 2.289062 Z M 23.96875 4.214844 C 24.738281 4.238281 25.355469 4.871094 25.355469 5.644531 C 25.355469 6.433594 24.714844 7.074219 23.925781 7.074219 C 23.136719 7.074219 22.496094 6.433594 22.496094 5.644531 C 22.496094 5.257812 22.652344 4.890625 22.929688 4.621094 C 23.207031 4.351562 23.582031 4.207031 23.96875 4.214844 Z M 27.238281 6.570312 C 32.3125 7.519531 36.714844 10.652344 39.273438 15.140625 L 37.585938 18.941406 C 37.296875 19.601562 37.597656 20.371094 38.25 20.664062 L 41.492188 22.101562 C 41.59375 23.117188 41.605469 24.136719 41.527344 25.152344 L 39.722656 25.152344 C 39.542969 25.152344 39.46875 25.273438 39.46875 25.445312 L 39.46875 26.273438 C 39.46875 28.222656 38.371094 28.648438 37.40625 28.753906 C 36.488281 28.859375 35.472656 28.367188 35.34375 27.808594 C 34.804688 24.761719 33.902344 24.113281 32.480469 22.988281 C 34.246094 21.867188 36.085938 20.210938 36.085938 17.996094 C 36.085938 15.601562 34.445312 14.097656 33.328125 13.355469 C 31.757812 12.324219 30.023438 12.117188 29.554688 12.117188 L 10.90625 12.117188 C 13.484375 9.238281 16.941406 7.285156 20.738281 6.570312 L 22.9375 8.875 C 23.433594 9.394531 24.257812 9.417969 24.777344 8.914062 Z M 6.9375 17.140625 C 7.707031 17.164062 8.324219 17.796875 8.324219 18.570312 C 8.324219 19.359375 7.683594 20 6.894531 20 C 6.105469 20 5.464844 19.359375 5.464844 18.570312 C 5.464844 18.183594 5.621094 17.816406 5.898438 17.546875 C 6.175781 17.277344 6.550781 17.132812 6.9375 17.140625 Z M 40.996094 17.207031 C 41.769531 17.230469 42.382812 17.863281 42.382812 18.636719 C 42.382812 19.425781 41.742188 20.0625 40.953125 20.0625 C 40.164062 20.0625 39.523438 19.425781 39.523438 18.636719 C 39.523438 18.25 39.679688 17.878906 39.957031 17.609375 C 40.234375 17.339844 40.609375 17.195312 40.996094 17.207031 Z M 9.628906 17.4375 L 12.117188 17.4375 L 12.117188 28.664062 L 7.09375 28.664062 C 6.472656 26.484375 6.277344 24.203125 6.523438 21.953125 L 9.601562 20.582031 C 10.257812 20.289062 10.554688 19.523438 10.261719 18.863281 Z M 20.019531 17.554688 L 25.949219 17.554688 C 26.253906 17.554688 28.109375 17.910156 28.109375 19.300781 C 28.109375 20.453125 26.6875 20.867188 25.515625 20.867188 L 20.011719 20.867188 Z M 20.019531 25.621094 L 24.558594 25.621094 C 24.972656 25.621094 26.777344 25.742188 27.351562 28.046875 C 27.53125 28.753906 27.933594 31.058594 28.203125 31.800781 C 28.472656 32.625 29.570312 34.28125 30.742188 34.28125 L 38.15625 34.28125 C 37.660156 34.945312 37.117188 35.574219 36.53125 36.164062 L 33.511719 35.515625 C 32.808594 35.363281 32.117188 35.8125 31.964844 36.515625 L 31.25 39.859375 C 26.585938 41.972656 21.234375 41.949219 16.589844 39.792969 L 15.875 36.449219 C 15.722656 35.746094 15.035156 35.296875 14.332031 35.445312 L 11.378906 36.082031 C 10.828125 35.515625 10.320312 34.914062 9.851562 34.28125 L 24.214844 34.28125 C 24.375 34.28125 24.488281 34.253906 24.488281 34.101562 L 24.488281 29.019531 C 24.488281 28.875 24.375 28.839844 24.214844 28.839844 L 20.011719 28.839844 Z M 13.390625 37.257812 C 14.164062 37.277344 14.777344 37.910156 14.777344 38.683594 C 14.777344 39.472656 14.136719 40.113281 13.347656 40.113281 C 12.558594 40.113281 11.917969 39.472656 11.917969 38.683594 C 11.917969 38.296875 12.074219 37.929688 12.351562 37.660156 C 12.628906 37.390625 13.003906 37.246094 13.390625 37.257812 Z M 34.542969 37.320312 C 35.3125 37.34375 35.929688 37.976562 35.929688 38.75 C 35.929688 39.539062 35.289062 40.175781 34.5 40.175781 C 33.710938 40.175781 33.070312 39.539062 33.070312 38.75 C 33.070312 38.363281 33.226562 37.992188 33.503906 37.722656 C 33.78125 37.453125 34.15625 37.308594 34.542969 37.320312 Z M 34.542969 37.320312 "/>
<path style="fill-rule:evenodd;fill:rgb(0%,0%,0%);fill-opacity:1;stroke-width:3;stroke-linecap:round;stroke-linejoin:round;stroke:rgb(0%,0%,0%);stroke-opacity:1;stroke-miterlimit:4;" d="M 115.680208 70.950001 C 115.680208 95.595264 95.695263 115.580209 71.049999 115.580209 C 46.404736 115.580209 26.419791 95.595264 26.419791 70.950001 C 26.419791 46.304737 46.404736 26.319792 71.049999 26.319792 C 95.695263 26.319792 115.680208 46.304737 115.680208 70.950001 Z M 114.838289 66.638355 L 121.803254 70.950001 L 114.838289 75.261646 L 120.816764 80.848927 L 113.162955 83.723357 L 117.942333 90.373666 L 109.846305 91.691822 L 113.247997 99.150033 L 105.058422 98.860889 L 106.937857 106.837859 L 98.960888 104.958424 L 99.250032 113.147999 L 91.791821 109.746306 L 90.473665 117.842335 L 83.823355 113.062956 L 80.948925 120.716765 L 75.361645 114.73829 L 71.049999 121.703256 L 66.738354 114.73829 L 61.151073 120.716765 L 58.276643 113.062956 L 51.626334 117.842335 L 50.308178 109.746306 L 42.849967 113.147999 L 43.139111 104.958424 L 35.162141 106.837859 L 37.041576 98.860889 L 28.852001 99.150033 L 32.253694 91.691822 L 24.157665 90.373666 L 28.937044 83.723357 L 21.283235 80.848927 L 27.26171 75.261646 L 20.296744 70.950001 L 27.26171 66.638355 L 21.283235 61.051075 L 28.937044 58.176645 L 24.157665 51.526335 L 32.253694 50.208179 L 28.852001 42.749968 L 37.041576 43.039112 L 35.162141 35.062143 L 43.139111 36.941578 L 42.849967 28.752003 L 50.308178 32.153695 L 51.626334 24.057667 L 58.276643 28.837045 L 61.151073 21.183236 L 66.738354 27.161711 L 71.049999 20.196746 L 75.361645 27.161711 L 80.948925 21.183236 L 83.823355 28.837045 L 90.473665 24.057667 L 91.791821 32.153695 L 99.250032 28.752003 L 98.960888 36.941578 L 106.937857 35.062143 L 105.058422 43.039112 L 113.247997 42.749968 L 109.846305 50.208179 L 117.942333 51.526335 L 113.162955 58.176645 L 120.816764 61.051075 Z M 114.838289 66.638355 " transform="matrix(0.45933,0,0,0.45933,-8.635406,-8.589474)"/>
</g>
</svg>
