<?xml version="1.0" encoding="UTF-8"?>
<svg xmlns="http://www.w3.org/2000/svg" xmlns:xlink="http://www.w3.org/1999/xlink" width="24px" height="24px" viewBox="0 0 24 24" version="1.1">
<defs>
<clipPath id="clip1">
  <path d="M 0 0 L 24 0 L 24 23.5625 L 0 23.5625 Z M 0 0 "/>
</clipPath>
</defs>
<g id="surface1">
<g clip-path="url(#clip1)" clip-rule="nonzero">
<path style=" stroke:none;fill-rule:evenodd;fill:rgb(21.960784%,74.117649%,97.254902%);fill-opacity:1;" d="M 12 0 C 8.800781 0 6.800781 2.617188 6 7.855469 C 7.199219 5.238281 8.601562 4.253906 10.199219 4.910156 C 11.113281 5.28125 11.765625 6.367188 12.488281 7.566406 C 13.664062 9.519531 15.027344 11.78125 18 11.78125 C 21.199219 11.78125 23.199219 9.164062 24 3.925781 C 22.800781 6.546875 21.398438 7.527344 19.800781 6.871094 C 18.886719 6.5 18.234375 5.414062 17.511719 4.214844 C 16.335938 2.261719 14.972656 0 12 0 Z M 6 11.78125 C 2.800781 11.78125 0.800781 14.398438 0 19.636719 C 1.199219 17.019531 2.601562 16.035156 4.199219 16.691406 C 5.113281 17.066406 5.765625 18.148438 6.488281 19.347656 C 7.664062 21.300781 9.027344 23.5625 12 23.5625 C 15.199219 23.5625 17.199219 20.945312 18 15.710938 C 16.800781 18.328125 15.398438 19.308594 13.800781 18.65625 C 12.886719 18.28125 12.234375 17.195312 11.511719 15.996094 C 10.335938 14.042969 8.972656 11.78125 6 11.78125 Z M 6 11.78125 "/>
</g>
</g>
</svg>
