<?xml version="1.0" encoding="UTF-8"?>
<svg xmlns="http://www.w3.org/2000/svg" xmlns:xlink="http://www.w3.org/1999/xlink" width="43px" height="48px" viewBox="0 0 43 48" version="1.1">
<g id="surface1">
<path style=" stroke:none;fill-rule:nonzero;fill:rgb(100%,75.686276%,19.215687%);fill-opacity:1;" d="M 29.878906 17.453125 C 29.878906 19.980469 27.824219 22.027344 25.289062 22.027344 C 22.75 22.027344 20.695312 19.980469 20.695312 17.453125 C 20.695312 14.929688 22.75 12.882812 25.289062 12.882812 C 27.824219 12.882812 29.878906 14.929688 29.878906 17.453125 Z M 29.878906 17.453125 "/>
<path style=" stroke:none;fill-rule:nonzero;fill:rgb(14.117648%,78.431374%,85.882354%);fill-opacity:1;" d="M 12.972656 30.546875 C 12.972656 33.070312 15.027344 35.117188 17.5625 35.117188 C 20.101562 35.117188 22.15625 33.070312 22.15625 30.546875 C 22.15625 28.019531 20.101562 25.972656 17.5625 25.972656 C 15.027344 25.972656 12.972656 28.019531 12.972656 30.546875 Z M 12.972656 30.546875 "/>
<path style=" stroke:none;fill-rule:evenodd;fill:rgb(100%,75.686276%,19.215687%);fill-opacity:1;" d="M 34.804688 32.113281 C 32.953125 33.304688 30.898438 34.132812 28.753906 34.5625 C 29.195312 33.304688 29.433594 31.953125 29.433594 30.546875 C 29.433594 30.035156 29.402344 29.53125 29.339844 29.039062 C 30.261719 28.71875 31.148438 28.289062 31.976562 27.753906 C 33.96875 26.472656 35.546875 24.644531 36.519531 22.492188 C 37.496094 20.339844 37.824219 17.949219 37.46875 15.617188 C 37.113281 13.28125 36.085938 11.097656 34.515625 9.328125 C 32.941406 7.558594 30.890625 6.277344 28.605469 5.640625 C 26.320312 5.007812 23.898438 5.039062 21.632812 5.742188 C 19.367188 6.441406 17.351562 7.777344 15.832031 9.589844 C 15.636719 9.824219 15.449219 10.0625 15.273438 10.304688 C 12.925781 10.566406 10.652344 11.226562 8.550781 12.25 C 9.234375 10.070312 10.347656 8.03125 11.832031 6.265625 C 13.996094 3.683594 16.863281 1.78125 20.089844 0.785156 C 23.3125 -0.210938 26.757812 -0.261719 30.011719 0.644531 C 33.261719 1.550781 36.183594 3.371094 38.417969 5.890625 C 40.65625 8.40625 42.117188 11.515625 42.621094 14.835938 C 43.128906 18.160156 42.660156 21.558594 41.273438 24.625 C 39.886719 27.6875 37.640625 30.289062 34.804688 32.113281 Z M 8.757812 15.433594 L 13.058594 15.960938 C 13.160156 15.128906 13.347656 14.316406 13.613281 13.53125 C 11.90625 13.921875 10.273438 14.5625 8.757812 15.433594 Z M 8.757812 15.433594 "/>
<path style=" stroke:none;fill-rule:evenodd;fill:rgb(14.117648%,78.431374%,85.882354%);fill-opacity:1;" d="M 8.015625 15.886719 C 9.882812 14.683594 11.953125 13.855469 14.113281 13.425781 C 13.625 14.746094 13.359375 16.171875 13.359375 17.664062 C 13.359375 18.109375 13.382812 18.546875 13.429688 18.980469 C 12.527344 19.296875 11.660156 19.722656 10.847656 20.246094 C 8.851562 21.527344 7.273438 23.355469 6.300781 25.507812 C 5.324219 27.660156 4.996094 30.050781 5.351562 32.382812 C 5.707031 34.71875 6.734375 36.902344 8.304688 38.671875 C 9.878906 40.441406 11.929688 41.722656 14.214844 42.359375 C 16.5 42.992188 18.921875 42.960938 21.1875 42.257812 C 23.453125 41.558594 25.46875 40.222656 26.988281 38.410156 C 27.183594 38.175781 27.371094 37.9375 27.550781 37.691406 C 29.898438 37.425781 32.171875 36.761719 34.277344 35.730469 C 33.59375 37.921875 32.480469 39.960938 30.988281 41.734375 C 28.824219 44.316406 25.957031 46.21875 22.734375 47.214844 C 19.507812 48.210938 16.0625 48.261719 12.8125 47.355469 C 9.558594 46.449219 6.640625 44.628906 4.402344 42.109375 C 2.164062 39.59375 0.703125 36.484375 0.199219 33.164062 C -0.308594 29.839844 0.160156 26.441406 1.546875 23.375 C 2.933594 20.3125 5.179688 17.710938 8.015625 15.886719 Z M 34.039062 32.5625 C 34.015625 32.578125 33.992188 32.589844 33.96875 32.601562 C 33.992188 32.589844 34.015625 32.578125 34.039062 32.5625 Z M 34.039062 32.5625 "/>
</g>
</svg>
