<?xml version="1.0" encoding="UTF-8"?>
<svg xmlns="http://www.w3.org/2000/svg" xmlns:xlink="http://www.w3.org/1999/xlink" width="21px" height="24px" viewBox="0 0 21 23" version="1.1">
<g id="surface1">
<path style=" stroke:none;fill-rule:nonzero;fill:rgb(100%,75.686276%,19.215687%);fill-opacity:1;" d="M 14.59375 8.363281 C 14.59375 9.574219 13.589844 10.554688 12.347656 10.554688 C 11.109375 10.554688 10.105469 9.574219 10.105469 8.363281 C 10.105469 7.152344 11.109375 6.171875 12.347656 6.171875 C 13.589844 6.171875 14.59375 7.152344 14.59375 8.363281 Z M 14.59375 8.363281 "/>
<path style=" stroke:none;fill-rule:nonzero;fill:rgb(14.117648%,78.431374%,85.882354%);fill-opacity:1;" d="M 6.335938 14.636719 C 6.335938 15.847656 7.339844 16.828125 8.578125 16.828125 C 9.816406 16.828125 10.820312 15.847656 10.820312 14.636719 C 10.820312 13.425781 9.816406 12.445312 8.578125 12.445312 C 7.339844 12.445312 6.335938 13.425781 6.335938 14.636719 Z M 6.335938 14.636719 "/>
<path style=" stroke:none;fill-rule:evenodd;fill:rgb(100%,75.686276%,19.215687%);fill-opacity:1;" d="M 16.996094 15.386719 C 16.09375 15.960938 15.089844 16.355469 14.042969 16.5625 C 14.257812 15.957031 14.375 15.3125 14.375 14.636719 C 14.375 14.390625 14.359375 14.152344 14.328125 13.914062 C 14.777344 13.761719 15.210938 13.554688 15.617188 13.300781 C 16.589844 12.683594 17.359375 11.808594 17.835938 10.777344 C 18.3125 9.746094 18.472656 8.601562 18.296875 7.480469 C 18.125 6.363281 17.625 5.316406 16.855469 4.46875 C 16.089844 3.621094 15.085938 3.007812 13.96875 2.703125 C 12.855469 2.398438 11.671875 2.414062 10.566406 2.75 C 9.457031 3.085938 8.476562 3.726562 7.730469 4.59375 C 7.636719 4.707031 7.546875 4.820312 7.460938 4.9375 C 6.3125 5.0625 5.203125 5.378906 4.175781 5.871094 C 4.511719 4.824219 5.054688 3.847656 5.777344 3 C 6.835938 1.765625 8.234375 0.855469 9.808594 0.375 C 11.386719 -0.101562 13.066406 -0.125 14.65625 0.308594 C 16.246094 0.742188 17.671875 1.617188 18.761719 2.820312 C 19.855469 4.027344 20.570312 5.515625 20.816406 7.109375 C 21.0625 8.703125 20.835938 10.332031 20.15625 11.796875 C 19.480469 13.265625 18.382812 14.511719 16.996094 15.386719 Z M 4.277344 7.394531 L 6.378906 7.648438 C 6.425781 7.25 6.519531 6.859375 6.648438 6.484375 C 5.816406 6.671875 5.015625 6.976562 4.277344 7.394531 Z M 4.277344 7.394531 "/>
<path style=" stroke:none;fill-rule:evenodd;fill:rgb(14.117648%,78.431374%,85.882354%);fill-opacity:1;" d="M 3.914062 7.613281 C 4.828125 7.035156 5.839844 6.636719 6.894531 6.433594 C 6.65625 7.066406 6.523438 7.75 6.523438 8.464844 C 6.523438 8.675781 6.535156 8.886719 6.558594 9.09375 C 6.117188 9.246094 5.695312 9.449219 5.296875 9.699219 C 4.324219 10.316406 3.550781 11.191406 3.078125 12.222656 C 2.601562 13.253906 2.441406 14.398438 2.613281 15.519531 C 2.789062 16.636719 3.289062 17.683594 4.054688 18.53125 C 4.824219 19.378906 5.828125 19.992188 6.941406 20.296875 C 8.058594 20.601562 9.242188 20.585938 10.347656 20.25 C 11.453125 19.914062 12.4375 19.273438 13.179688 18.40625 C 13.277344 18.292969 13.367188 18.175781 13.453125 18.058594 C 14.601562 17.933594 15.710938 17.613281 16.738281 17.121094 C 16.40625 18.171875 15.863281 19.148438 15.132812 20 C 14.078125 21.234375 12.675781 22.144531 11.101562 22.625 C 9.527344 23.101562 7.84375 23.125 6.257812 22.691406 C 4.667969 22.257812 3.242188 21.382812 2.148438 20.179688 C 1.058594 18.972656 0.34375 17.484375 0.0976562 15.890625 C -0.152344 14.296875 0.078125 12.667969 0.753906 11.203125 C 1.433594 9.734375 2.53125 8.488281 3.914062 7.613281 Z M 16.621094 15.601562 C 16.613281 15.609375 16.601562 15.617188 16.589844 15.621094 C 16.601562 15.617188 16.613281 15.609375 16.621094 15.601562 Z M 16.621094 15.601562 "/>
</g>
</svg>
